<?xml version="1.0" encoding="UTF-8"?>
<svg id="Layer_4" data-name="Layer 4" xmlns="http://www.w3.org/2000/svg" viewBox="0 0 1061.22 1074.56">
  <defs>
    <style>
      .cls-1 {
        fill: #ffba00;
      }

      .cls-2 {
        fill: #363e44;
      }

      .cls-3 {
        fill: #fff;
      }

      .cls-4 {
        fill: #e2a18d;
      }

      .cls-5 {
        fill: #363e44;
      }

      .cls-6 {
        fill: #00a9b7;
      }

      .cls-7 {
        fill: #8accce;
      }

      .cls-8 {
        fill: #f7f1eb;
      }
    </style>
  </defs>
  <g id="Sign_in_page" data-name="Sign in page">
    <g>
      <g>
        <rect class="cls-3" x="571.17" y="482.84" width="243.62" height="459.6"/>
        <g>
          <path class="cls-5" d="M805.78,970.34h-227.3c-14.68,0-26.63-11.95-26.63-26.63v-466.51c0-14.68,11.95-26.63,26.63-26.63h227.3c14.68,0,26.63,11.95,26.63,26.63v466.51c0,14.68-11.95,26.63-26.63,26.63ZM578.49,452.1c-13.84,0-25.1,11.26-25.1,25.1v466.51c0,13.84,11.26,25.1,25.1,25.1h227.3c13.84,0,25.1-11.26,25.1-25.1v-466.51c0-13.84-11.26-25.1-25.1-25.1h-227.3Z"/>
          <path class="cls-5" d="M726.54,469.04h-67.14c-.42,0-.76-.34-.76-.76s.34-.76.76-.76h67.14c.42,0,.76.34.76.76s-.34.76-.76.76Z"/>
        </g>
      </g>
      <g>
        <g>
          <path class="cls-7" d="M692.74,652.92c-34.52,0-62.6-28.08-62.6-62.6s28.08-62.6,62.6-62.6,62.6,28.08,62.6,62.6-28.08,62.6-62.6,62.6ZM692.74,529.24c-33.68,0-61.08,27.4-61.08,61.08s27.4,61.08,61.08,61.08,61.08-27.4,61.08-61.08-27.4-61.08-61.08-61.08Z"/>
          <path class="cls-7" d="M692.74,590.71c-19.67,0-32.44,7.53-32.44,19.6,6.13,11.65,18.35,19.6,32.44,19.6s26.3-7.95,32.44-19.6c0-11.44-14.04-19.6-32.44-19.6Z"/>
          <circle class="cls-7" cx="692.74" cy="564.59" r="16.73"/>
        </g>
        <g>
          <path class="cls-6" d="M762.89,733.26l-141.39.43c-11.37.03-20.62-9.16-20.66-20.53h0c-.03-11.37,9.16-20.62,20.53-20.66l141.39-.43c11.37-.03,20.62,9.16,20.66,20.53h0c.03,11.37-9.16,20.62-20.53,20.66Z"/>
          <path class="cls-6" d="M762.89,814.42l-141.39.43c-11.37.03-20.62-9.16-20.66-20.53h0c-.03-11.37,9.16-20.62,20.53-20.66l141.39-.43c11.37-.03,20.62,9.16,20.66,20.53h0c.03,11.37-9.16,20.62-20.53,20.66Z"/>
        </g>
        <g>
          <circle class="cls-3" cx="635.86" cy="713.42" r="5.94" transform="translate(-146.9 165.18) rotate(-13.28)"/>
          <circle class="cls-3" cx="658.46" cy="713.42" r="5.94" transform="translate(-146.3 170.37) rotate(-13.28)"/>
          <circle class="cls-3" cx="680.33" cy="713.42" r="5.94" transform="translate(-145.71 175.39) rotate(-13.28)"/>
          <circle class="cls-3" cx="702.93" cy="713.42" r="5.94" transform="translate(-298.58 706) rotate(-45)"/>
          <circle class="cls-3" cx="725.67" cy="713.42" r="5.94" transform="translate(-144.5 185.81) rotate(-13.28)"/>
          <circle class="cls-3" cx="748.27" cy="713.42" r="5.94" transform="translate(-285.3 738.06) rotate(-45)"/>
        </g>
        <rect class="cls-7" x="643.3" y="858.11" width="107.37" height="30.39" rx="9.73" ry="9.73"/>
        <g>
          <circle class="cls-3" cx="635.86" cy="795.74" r="5.94" transform="translate(-165.81 167.38) rotate(-13.28)"/>
          <circle class="cls-3" cx="658.46" cy="795.74" r="5.94" transform="translate(-165.21 172.57) rotate(-13.28)"/>
          <circle class="cls-3" cx="680.33" cy="795.74" r="5.94" transform="translate(-164.62 177.6) rotate(-13.28)"/>
          <circle class="cls-3" cx="702.93" cy="795.74" r="5.94" transform="translate(-356.79 730.11) rotate(-45)"/>
          <circle class="cls-3" cx="725.67" cy="795.74" r="5.94" transform="translate(-163.41 188.01) rotate(-13.28)"/>
          <circle class="cls-3" cx="748.27" cy="795.74" r="5.94" transform="translate(-343.51 762.17) rotate(-45)"/>
        </g>
      </g>
    </g>
    <g>
      <path class="cls-2" d="M480.42,1079.01h-232.65c-8.15-18.14-6.91-43.87,8.13-80.05,11.35-9.74,24.52-17.14,39.29-20.98,22.12-5.74,45.46-3.46,67.36,2.14,22.94,5.88,45.9,13.06,66.69,24.62,10.28,5.72,20.01,12.55,28.31,20.91,4.65,4.67,4.56-.57,8.5,4.68,3.14,4.17,10.96,30.7,14.37,48.67Z"/>
      <g>
        <path class="cls-4" d="M412.28,751.79c-7.85-16.06-13.85-24.73-24.18-28.23-13.89-4.69-27.17,4.48-28.54,5.45-.88.62-13.86,8.75-14.44,24.16-.57,15.21,6.94,30.2,19.91,37.9l3.77,33.42c1.21,10.73,10.89,18.45,21.62,17.24l2.43-.27c10.73-1.21,18.45-10.89,17.24-21.62l-2.52-22.33c6.74-1.34,11.91-3.92,13.68-7.61,3.17-6.61.28-19.21-8.96-38.13Z"/>
        <path class="cls-2" d="M407.82,797.72c-.37,0-.7-.28-.75-.66l-1.14-8.15c-.06-.42.23-.8.65-.86.42-.06.8.23.86.65l1.14,8.15c.06.42-.23.8-.65.86-.04,0-.07,0-.11,0Z"/>
        <path class="cls-2" d="M393.92,774.53c-.18,0-.36-.06-.5-.19-1.05-.91-1.99-1.76-2.96-2.65-.79-.72-1.61-1.46-2.53-2.27-.32-.28-.34-.76-.07-1.08.28-.31.76-.34,1.08-.07.93.82,1.75,1.56,2.54,2.28.97.88,1.9,1.72,2.94,2.63.32.28.35.76.07,1.08-.15.17-.36.26-.58.26Z"/>
        <path class="cls-2" d="M325.07,762.86c-2.92-8.47,1.59-17.71,10.06-20.63.01,0,.03,0,.04-.01-1.35-1.41-2.43-3.12-3.11-5.09-2.51-7.3,1.37-15.25,8.66-17.77,1.53-.53,3.08-.76,4.6-.75-2-7.08,1.84-14.57,8.89-17,3.98-1.37,8.15-.83,11.53,1.12,1.27-5.2,5.07-9.68,10.51-11.55,8.23-2.83,17.17,1.31,20.39,9.29.38-.17.77-.33,1.17-.47,7.3-2.51,15.25,1.37,17.77,8.66,2.51,7.3-1.37,15.25-8.66,17.77-.21.07-.42.12-.63.18,3.43,13.22-9.72,19.35-10.47,19.83,3.54,5.39,7.08,10.78,10.61,16.17-2.04,1.4-4.43,3.23-6.47,4.63-3.4-5.77-6.66-7.36-10.33-6.8-5.78.87-9.2,7.57-7.91,13.09,1.18,5.03,4.65,9.55,10.22,10.72-5.48,1.98-11.28,3.9-17.38,5.69-3.18.94-6.31,1.8-9.38,2.6-2.22-.58-16.59-4.6-23.95-18.76-7.04.36-13.75-3.93-16.16-10.92Z"/>
      </g>
      <g>
        <g>
          <path class="cls-4" d="M222.47,986.06c68.93,15.34,109.76,25.06,124.91,28.24,1.59.33,4.39.93,8.1.7,13.76-.87,18.02-11.81,32.07-19.33,15.94-8.53,29.74-4.31,30.7-8.82.67-3.14-4.09-6.2-15.28-8.4,0,0,0,0,0,0,8.69.69,20.52,1.12,20.89-3.69.13-5.57-13.71-7.7-22.15-8.58,10.21,1.06,15.96-1.42,15.5-4.15-.73-4.3-8.45-6.97-22-7.85,0,0,0,0,0,0,9.53-2,11.54-3.91,10.54-6.22-1.82-4.22-12.97-4.74-22.9-3.69-11.18,1.19-19.43,5.99-24.57,9.14,0,0,0,0,0,0-47.17-15.75-78.43-25.88-116.26-39.37-7.74-2.76-19.55,72.02-19.54,72.02Z"/>
          <path class="cls-4" d="M272.25,841.86c-62.7,72.83-82.13,128.02-53.82,142.92,16.04,8.44,63.77-25.33,108.89-86.7-19.58-17.89-30.84-35.19-55.07-56.22Z"/>
        </g>
        <g>
          <path class="cls-4" d="M504.55,849.54c78.31,16.65,139.81,33.53,133.09,58.65-14.22,53.18-73.29,25.85-125.8,25.38-1.98-21.57-5.46-57.89-7.29-84.04Z"/>
          <g>
            <path class="cls-4" d="M584.71,871.86s23.5-51.65,37.9-78.14c15.11-27.83,41.48-66.71,46.87-62.95,3.07,2.14.57,8.19-7.18,23.9,1.19-.4,4.84-.91,7.36,1.55,3.73,3.63,1.87,7.63,1.85,8.05.39-.17,4.66-1.87,7.57.13,3.28,2.26,4.09,5.62,3.47,8.68.98-.39,4.76-1.46,7.5.55,2.82,2.07,4.26,6.27,2.47,9.45-3.28,5.83-13.36,22.98-17.25,31.93-7.65,17.6-26.45,83.76-44.23,106.27-13.29-20.98-46.32-49.43-46.32-49.43Z"/>
            <g>
              <path class="cls-2" d="M685.78,788.45c-.16,0-.32-.05-.45-.15l-4.54-3.37c-.34-.25-.41-.73-.16-1.07.25-.34.73-.41,1.07-.16l4.54,3.37c.34.25.41.73.16,1.07-.15.2-.38.31-.61.31Z"/>
              <path class="cls-2" d="M674.68,780.52c-.17,0-.33-.05-.47-.17l-5.01-3.97c-.33-.26-.39-.74-.12-1.07.26-.33.74-.39,1.07-.12l5.01,3.97c.33.26.39.74.12,1.07-.15.19-.37.29-.6.29Z"/>
              <path class="cls-2" d="M663.59,771.39c-.16,0-.32-.05-.45-.15-.85-.63-1.61-1.2-2.37-1.78-.76-.57-1.52-1.14-2.37-1.77-.34-.25-.41-.73-.16-1.07.25-.34.73-.41,1.07-.16.85.63,1.61,1.2,2.37,1.78.76.57,1.52,1.14,2.37,1.77.34.25.41.73.16,1.07-.15.2-.38.31-.61.31Z"/>
              <path class="cls-2" d="M653.75,764.76c-.14,0-.28-.04-.41-.12l-4.74-3.01c-.36-.23-.46-.7-.24-1.05.23-.36.7-.46,1.05-.24l4.74,3.01c.36.23.46.7.24,1.05-.15.23-.39.35-.65.35Z"/>
            </g>
          </g>
        </g>
        <path class="cls-1" d="M245.25,857.86c8.43-15.86,22.73-27.83,39.87-33.17,21.83-6.81,54.98-13.4,94.68-9.18,74.03,7.86,157.85,34.04,157.85,34.04v108.28l-53.97-11.25-11.8,88.44-220.73-37.59,9.42-62.32-38.09-34.41,22.77-42.84Z"/>
      </g>
    </g>
    <g>
      <g>
        <g>
          <path class="cls-8" d="M226.67,555.92v53.01c0,37.56,30.45,68.01,68.01,68.01h0c37.56,0,68.01-30.45,68.01-68.01v-53.01h-136.01Z"/>
          <path class="cls-2" d="M294.67,677.7c-37.92,0-68.77-30.85-68.77-68.77v-53.01c0-.42.34-.76.76-.76h136.01c.42,0,.76.34.76.76v53.01c0,37.92-30.85,68.77-68.77,68.77ZM227.43,556.68v52.25c0,37.08,30.16,67.24,67.24,67.24s67.24-30.16,67.24-67.24v-52.25h-134.49Z"/>
        </g>
        <path class="cls-2" d="M355.19,542.43c-.42,0-.76-.34-.76-.76,0-32.95-26.8-59.75-59.75-59.75s-59.75,26.8-59.75,59.75c0,.42-.34.76-.76.76s-.76-.34-.76-.76c0-33.79,27.49-61.28,61.28-61.28s61.28,27.49,61.28,61.28c0,.42-.34.76-.76.76Z"/>
      </g>
      <polygon class="cls-6" points="293.39 639.18 265.81 614.1 274.33 603.59 291.82 617.57 319.26 577.74 330.43 585.42 293.39 639.18"/>
    </g>
  </g>
  <g>
    <path class="cls-3" d="M55.26,234.12s163.24,35.04,273.91,0c0,0-46.21-4.12-65.37-25.38-19.15-21.26-42.98-16.6-56.3,11.6,0,0,6.23-36.72-30.49-59.91-36.72-23.19-61.84,44.64-61.84,44.64,0,0,0,27.39-59.91,29.06Z"/>
    <path class="cls-3" d="M301.49,88.53s143.27,30.76,240.4,0c0,0-40.56-3.62-57.37-22.28-16.81-18.66-37.72-14.57-49.42,10.18,0,0,5.47-32.23-26.76-52.58-32.23-20.35-54.28,39.18-54.28,39.18,0,0,0,24.04-52.58,25.51Z"/>
    <path class="cls-3" d="M546.26,302.22s143.27,30.76,240.4,0c0,0-40.56-3.62-57.37-22.28-16.81-18.66-37.72-14.57-49.42,10.18,0,0,5.47-32.23-26.76-52.58-32.23-20.35-54.28,39.18-54.28,39.18,0,0,0,24.04-52.58,25.51Z"/>
    <path class="cls-3" d="M742.47,130.3s143.27,30.76,240.4,0c0,0-40.56-3.62-57.37-22.28-16.81-18.66-37.72-14.57-49.42,10.18,0,0,5.47-32.23-26.76-52.58-32.23-20.35-54.28,39.18-54.28,39.18,0,0,0,24.04-52.58,25.51Z"/>
  </g>
</svg>