<?xml version="1.0" encoding="UTF-8"?>
<svg xmlns="http://www.w3.org/2000/svg" xmlns:xlink="http://www.w3.org/1999/xlink" viewBox="0 0 1200 1063.09">
  <defs>
    <style>
      .cls-1 {
        fill: #c7ae86;
      }

      .cls-2 {
        fill: #e7898a;
      }

      .cls-3 {
        fill: #fbfbfb;
        opacity: .69;
      }

      .cls-4 {
        fill: #c3a285;
      }

      .cls-5 {
        fill: #8c5327;
      }

      .cls-6 {
        fill: #ffba00;
      }

      .cls-7 {
        fill: #59c2e9;
      }

      .cls-8, .cls-9 {
        fill: #c8bed2;
      }

      .cls-10 {
        fill: #f0f0cd;
      }

      .cls-11 {
        fill: #344e5d;
      }

      .cls-12 {
        fill: #363e44;
      }

      .cls-13 {
        fill: #e9eebf;
      }

      .cls-14 {
        fill: #b4a8c3;
      }

      .cls-14, .cls-9, .cls-15 {
        mix-blend-mode: multiply;
      }

      .cls-16 {
        fill: url(#linear-gradient-2);
      }

      .cls-17 {
        fill: #ef926d;
      }

      .cls-18 {
        fill: #b7345a;
      }

      .cls-19 {
        fill: #d7406c;
      }

      .cls-20 {
        fill: #977b66;
      }

      .cls-21 {
        fill: #bebe9d;
      }

      .cls-22 {
        fill: #f0e57c;
      }

      .cls-23 {
        fill: #e7ab7c;
      }

      .cls-24 {
        opacity: .5;
      }

      .cls-24, .cls-25 {
        fill: #82d2ea;
      }

      .cls-26 {
        fill: #498f64;
      }

      .cls-27 {
        fill: #d3d3ae;
      }

      .cls-28 {
        fill: #b36d3d;
      }

      .cls-29 {
        fill: #f5d9d9;
      }

      .cls-30 {
        fill: #c3ab9b;
      }

      .cls-31 {
        fill: #4899f6;
      }

      .cls-32 {
        fill: #ecbe93;
      }

      .cls-33 {
        fill: #f2dfdf;
      }

      .cls-34 {
        fill: #00a9b7;
      }

      .cls-35 {
        fill: #5fd0d0;
      }

      .cls-36 {
        fill: #eeeab7;
      }

      .cls-37 {
        isolation: isolate;
      }

      .cls-38 {
        fill: #e47f8f;
      }

      .cls-39 {
        fill: #e45b69;
      }

      .cls-40 {
        fill: #675fc2;
      }

      .cls-41 {
        fill: #f1d859;
      }

      .cls-42 {
        fill: #4fb5b7;
      }

      .cls-43 {
        fill: #9fb3c0;
      }

      .cls-44 {
        fill: #54a465;
      }

      .cls-45 {
        fill: #596572;
      }

      .cls-46 {
        fill: #3c8695;
      }

      .cls-47 {
        fill: #f14290;
      }

      .cls-48 {
        fill: #ecdda3;
      }

      .cls-49 {
        fill: #8accce;
      }

      .cls-50 {
        fill: #4eb2cd;
      }

      .cls-51 {
        fill: #ffa300;
      }

      .cls-52 {
        fill: #a4ebef;
      }

      .cls-53 {
        fill: #cae2ee;
      }

      .cls-54 {
        fill: #fd73b3;
      }

      .cls-55 {
        fill: #8040fd;
      }

      .cls-56 {
        fill: #f1e6d8;
      }

      .cls-57 {
        fill: #bd9067;
      }

      .cls-58 {
        fill: #faa679;
      }

      .cls-59 {
        fill: #346e82;
      }

      .cls-60 {
        fill: #c5d1dd;
      }

      .cls-61 {
        fill: #60bf7d;
      }

      .cls-62 {
        fill: #1e7dd9;
      }

      .cls-63 {
        fill: #f2ae3f;
      }

      .cls-64 {
        fill: #dde3e7;
      }

      .cls-65 {
        fill: url(#linear-gradient);
      }

      .cls-66 {
        fill: #3e84dc;
      }

      .cls-67 {
        fill: #d68b5b;
      }

      .cls-68 {
        fill: #f8ae00;
      }

      .cls-69 {
        fill: #4ea8ac;
      }
    </style>
    <linearGradient id="linear-gradient" x1="568.47" y1="459.3" x2="873.39" y2="459.3" gradientUnits="userSpaceOnUse">
      <stop offset="0" stop-color="#c9b8ea"/>
      <stop offset=".42" stop-color="#a5cfdf"/>
      <stop offset="1" stop-color="#ffcadf"/>
    </linearGradient>
    <linearGradient id="linear-gradient-2" x1="1023.08" y1="494.46" x2="1024.45" y2="622.04" gradientUnits="userSpaceOnUse">
      <stop offset="0" stop-color="#f0e57c"/>
      <stop offset="1" stop-color="#fac04d"/>
    </linearGradient>
  </defs>
  <g class="cls-37">
    <g id="Layer_1" data-name="Layer 1">
      <g>
        <g>
          <polygon class="cls-5" points="607.59 541.09 607.59 552.1 298.02 672.65 298.02 661.64 607.59 541.09"/>
          <path class="cls-5" d="M607.59,481.46v11.04c-41.63,16.17,85.91-33.45-206.02,80.23l58.71-33.91,147.31-57.36Z"/>
          <polygon class="cls-28" points="607.59 481.46 460.28 538.83 588.26 464.93 607.59 481.46"/>
          <path class="cls-31" d="M341.52,607.39v-11.04l264.02-152.43v11.04c-57.37,33.09-145.53,84.05-264.02,152.43Z"/>
          <path class="cls-43" d="M593.08,540.9l-289.92,112.89v-42.74l26.67-10.39v-.02l11.69,6.75,60.04-34.66,191.52-74.58v42.74Z"/>
          <path class="cls-43" d="M591.24,445.34l-247.27,142.77v-41.74l247.27-142.77v41.74Z"/>
          <path class="cls-31" d="M341.52,547.8v-11.04l264.02-152.43v11.02c-19.94,11.53-260.07,150.16-264.02,152.46Z"/>
          <path class="cls-5" d="M329.83,600.64v.02c-31.2,12.15-25.01,9.74-31.81,12.39v-11.04l20.43-7.94,11.39,6.57Z"/>
          <polygon class="cls-28" points="318.44 594.07 298.02 602.01 227.19 541.39 318.44 594.07"/>
          <path class="cls-28" d="M303.17,653.79l289.92-112.89v-12.23l14.51,12.41-309.57,120.55-58.99-50.54c1-2.91,2.68-5.57,4.98-7.94l59.16,50.63Z"/>
          <path class="cls-64" d="M303.17,611.05v42.74l-59.16-50.63c2.63-2.75,6.08-5.15,10.27-7.22v-1.47c-9.34-7.99-18.68-16-28.02-23.99-4.59,2.24-8.36,4.89-11.18,7.92-.59-.59.38.33-52.87-45.25-4.63-3.98-8.06-12.39-8.06-18.68v-15.26l33.49,19.33,110.37,94.51,5.15-2Z"/>
          <path class="cls-67" d="M298.02,661.64v11.02l-60.16-51.49c-.35-3.68.05-7.01,1.16-10.06l58.99,50.54Z"/>
          <path class="cls-67" d="M298.02,602.01v11.04l-110.37-94.51,39.5,22.82c.23.12-1.89-1.64,70.87,60.65Z"/>
          <path class="cls-2" d="M254.28,594.47c-15.39,7.55-21.57,19.45-16,36.12l-28.02-23.99c-5.47-16.5.5-28.57,16-36.12,9.34,7.99,18.68,16,28.02,23.99Z"/>
          <path class="cls-39" d="M238.28,630.59c-5.57-16.68.61-28.58,16-36.12v1.47c-15.01,7.42-19.7,18.75-14.51,33.84l-1.49.81Z"/>
          <path class="cls-64" d="M155.69,440.66c1.34.54-11.37-6.72,185.83,107.13l2.45-1.42v41.74l-178.24-102.9c-5.66-3.28-10.18-11.16-10.18-17.65,0-26.89-.06-25.71.14-26.9Z"/>
          <path class="cls-25" d="M155.69,440.66c-.22,1.3-.14,0-.14,26.9,0,6.5,4.52,14.37,10.18,17.65l178.24,102.9,247.27-142.77v-9.67l14.3,8.24-264.02,152.43-184.15-106.32c-5.64-3.24-10.2-11.09-10.2-17.65v-25.04c0-2.03.56-4.54,2.03-5.92,1.37-1.26,3.71-1.84,6.5-.77Z"/>
          <path class="cls-28" d="M154.16,499.21v15.26c0,6.29,3.42,14.7,8.06,18.68,61.26,52.43,52.07,44.45,52.87,45.25-2.31,2.38-4.01,4.98-5.12,7.83-.24,0,.03.04-57.57-49.26-4.54-3.89-8.06-12.23-8.06-18.68,0-27.78-.09-24.95.21-25.25,2.15,2.1,3.47,2.62,9.62,6.17Z"/>
          <path class="cls-25" d="M140.6,424.22c283.42-163.65,264.24-152.81,265.81-153.04,1.65-.21,3.26.05,5.43,1.3l193.7,111.84-264.02,152.43c-206.48-119.22-194.69-112.82-197.24-113.14-1.23-.16-2.59.02-3.68.61Z"/>
          <path class="cls-50" d="M394.29,336.57l84.01,48.5c3.44,1.99,9.02,1.99,12.47,0l4.14-2.39c3.44-1.99,3.44-5.21,0-7.2l-84.01-48.5c-3.44-1.99-9.02-1.99-12.47,0l-4.14,2.39c-3.44,1.99-3.44,5.21,0,7.2Z"/>
          <path class="cls-67" d="M137.62,477.9c0,5.19,2.86,11.25,6.92,15.14-.31.31-.21-1.74-.21,25.25,0,6.45,3.52,14.79,8.06,18.68,58.54,50.1,57.34,49.26,57.57,49.26-1.19,2.93-1.77,6.13-1.7,9.57-.23,0,.85.75-63.42-54.27-4.54-3.89-8.06-12.23-8.06-18.68v-47.09c0-1.49.19-3.14.84-4.49v6.64Z"/>
          <path class="cls-14" d="M368.26,664.84c-6.17,2.39-11.98,4.61-17.77,6.89-5.51,2.17-10.55,2.13-14.82-2.67-4.21-4.74-9.08-5.09-14.67-2.44-4.15,1.97-8.48,3.65-12.87,5.01-2.96.92-10.11,1.02-10.11,1.02v-11.02s12.49-4.85,16.81-7.72c-3.7-.29-11.66-.13-11.66-.13v-23.2s-1.68-6.48-4.24-8.65c-23.56-19.97-47.05-40.02-70.4-60.22-3.34-2.89-7.1-3.66-11.08-4.35-8.53-1.48-17.02-3.32-25.6-4.33-6.87-.81-9.89-4.87-11.38-10.87-1.17-4.73-2.48-9.45-3.28-14.25-1.22-7.28-6.27-17.79-12.74-22.77,18.45,8.97,40.39,23.33,59.7,34.48h-11.87c28.8,24.9,85.74,73.42,85.74,73.42v-11.02s20.43-7.96,20.43-7.96l3.75,2.35s12.11,6.91,18.84,10.73c.33-4.18.58-7.34.83-10.59,3.6-2.38,8.09-4.8,12.67-7.83-3.7-.43-10.57-.62-10.57-.62,0,0-.15-13.2.25-19.06.34-5.12-1.84-6.95-5.98-9.33-39.01-22.4-77.95-44.93-116.91-67.41-15.02-8.67-30.03-17.35-45.11-25.92-9.47-5.39-12.74-3.53-12.92,7.12-.05,2.93,0,5.85,0,9.4-6.25.1-11.47-1.91-15.28-5.35,0,0-2.14-4.58-.84-8.59,0,0-2.34-23.66-1.06-26.72,2.1-5.02,8.25-2.07,8.25-2.07,2.72,1.18,5.32,2.69,7.89,4.18,56.1,32.37,112.18,64.76,168.28,97.13,3.22,1.86,11,6.31,11,6.31v-11.04l264.02-152.43v11.02l-14.3,8.27v32.07l14.3,8.24v11.04l-10.87,6.36c36.59,21.85,74.04,41.92,110.84,63.93-3.7,2.36-6.34,4.18-9.11,5.78-76.53,44.12-153.07,88.22-229.61,132.33-7.04,4.06-14.13,8.05-21.06,12.28-5.45,3.33-10.78,2.95-16.18.17-2.41-1.24-4.82-2.52-7.03-4.07-4.11-2.87-8.12-2.43-12.2-.1-2.12,1.21-4.26,2.38-6.3,3.71-5.89,3.82-11.75,3.37-17.61,0-6.09-3.5-12.15-7.04-18.14-10.52Z"/>
          <path class="cls-9" d="M247.07,629.54c-3.26,0-6.16,1.05-8.79,1.05-5.57-17.54,1.29-29.47,16-36.12,3.24,5.44,1.08,13.27,3.13,19.83-3.5,1.35-6.66,2.58-10.34,3.99v11.25Z"/>
          <path class="cls-9" d="M164.44,505.15c-8.52,5.63-5.45,14.59-4.12,26.04-4.07-1.69-11.85-9.63-15.92-11.33,0-9.52.14-17.95.14-26.82,5.48.69,13.03,6.44,19.9,12.11Z"/>
          <path class="cls-7" d="M139.65,424.89c1.23-1.12,3.03-1.49,4.63-1.28,2.56.33-9.19-6.04,197.24,113.14v11.04c-196.68-113.55-185.26-107.3-187.7-107.65-1.6-.21-3.4.15-4.63,1.28-1.47,1.37-2.03,3.89-2.03,5.92v25.04c0,6.57,4.56,14.42,10.2,17.65l184.15,106.32v11.04c-5.3-3.06-174.76-100.9-193.7-111.84-5.54-3.17-10.2-11-10.2-17.65v-47.09c0-2.03.56-4.54,2.03-5.92Z"/>
        </g>
        <g>
          <path class="cls-65" d="M568.53,664.71c.93,9.61,2.79,16.81,7.19,25.61,3.56,7.13,9.94,16.05,15.97,21.3,6.76,5.9,14.97,9.93,22.88,14.25,11.94,6.48,23.02,13.38,34.54,20.29,2.94,1.75,192.25,111.08,195.42,112.39,15.66,6.6,27.34-2.88,27.34-20.72,1.24-522.24.57-424.19,1.01-455.3.14-22.74.72-45.62.43-68.35-.14-15.11-.58-30.08-.29-45.33.14-6.33.43-12.81-.29-19-2.69-18.85-13.68-35.81-25.61-45.18-4.89-3.88-10.5-6.91-16.12-9.93-8.92-5.04-17.55-10.22-26.19-15.25-29.73-17.39-59.31-33.57-98.71-56.7-71.94-42.81-66.76-37.02-85.48-49.07-12.95-8.36-30.21-21.88-42.88-12.66-9,6.42-8.2,19.99-7.91,29.93.47,14.47-.75,11.48-.14,64.47.12,24.64-1.53,501.48-1.15,509.26ZM752.44,168.26c0,.29,0,.72-.14,1.01-.14.43-.14.72-.43.86-.14.29-.29.43-.58.58-1.9.95,1.39,2.24-56.84-31.37-.43-.29-.72-.58-1.01-.86-.7-.47-1.51-1.5-1.73-2.16-1.48-2.22-1.15-3.61-1.15-8.06,0-1.17.19-2.11,1.15-2.59.41-.41,1.18-.32,1.73-.14.29,0,.72.14,1.01.43,8.49,5.09,54.03,30.86,55.11,31.95.94.94,1.59,1.3,2.3,3.45.82,1.23.58,3.61.58,6.91Z"/>
          <g>
            <g>
              <path class="cls-3" d="M648.86,210.93l-42.59-24.59c-5.22-3.01-9.45-9.69-9.45-14.91h0c0-5.22,4.23-7.01,9.45-3.99l42.59,24.59c5.22,3.01,9.45,9.69,9.45,14.91h0c0,5.22-4.23,7.01-9.45,4Z"/>
              <path class="cls-3" d="M648.86,237.49l-42.59-24.59c-5.22-3.01-9.45-9.69-9.45-14.91h0c0-5.22,4.23-7.01,9.45-4l42.59,24.59c5.22,3.01,9.45,9.69,9.45,14.91h0c0,5.22-4.23,7.01-9.45,3.99Z"/>
            </g>
            <path class="cls-3" d="M822.46,268.22l-206.72-119.35c-10.75-6.21-19.46-19.95-19.46-30.7h0c0-10.75,8.71-14.43,19.46-8.23l206.72,119.35c10.75,6.21,19.46,19.95,19.46,30.7h0c0,10.75-8.71,14.43-19.46,8.23Z"/>
          </g>
          <path class="cls-11" d="M695.16,126.39c57.77,33.32,55.37,31,56.7,34.97.29.43.43.86.43,1.3.14.43.14.86.14,1.29v3.45c-58.88-34.05-53.54-30.8-54.83-32.09-1.34-1.34-2.45-3.48-2.45-5.61v-3.31Z"/>
          <path class="cls-45" d="M693.44,125.52c.29,0,.72.14,1.01.43l.72.43c0,4.02-.06,3.94.29,5.32.77,2.3,2.27,4.01,3.74,4.89l53.24,30.79v.86c0,.29,0,.72-.14,1.01-.14.43-.14.72-.43.86-.14.29-.29.43-.58.58-.72.36-.46.29-1.73.29-.29-.14-.72-.29-1.01-.43-55.28-31.9-55.99-31.68-56.84-34.25-1.52-2.28-1.15-4-1.15-8.06,0-.71.05-1.24.43-2.01.78-.78,1.35-1.08,2.45-.72Z"/>
          <path class="cls-34" d="M601.77,53.72c-10.89-6.38-20.62-6.5-27.63-2.88,42.57-24,41.75-24.94,47.49-25.61,8.49-.97,13.98,1.29,21.01,5.04l239.45,138.29c20.04,11.24,39.29,41.48,39.29,68.21-1.38,622.11-1.07,583.35-1.73,589.27-1.03,6.78-5.1,14.72-11.08,18.13-51.41,29.3-39.54,23.28-37.13,20.87,5.61-5.47,7.77-15.11,7.91-22.88l1.15-581.93c0-24.42-16.56-54.9-39.29-68.21l-239.45-138.29Z"/>
          <path class="cls-49" d="M841.22,192l-239.45-138.29c-10.9-6.39-20.63-6.5-27.63-2.88,0,.14-.14.14-.14.14-8.31,3.69-11.66,15.96-11.66,25.47l-1.12,547.84-.03-.02v34.1c0,24.2,15.99,54.31,39.14,68.21l239.59,138.29c20.29,11.89,38.94,3.87,39.43-22.74l1.15-581.93c0-24.29-16.44-54.84-39.28-68.21ZM872.88,382.53c-.42,29.58.22-64.58-1.01,455.3,0,17.81-11.65,27.33-27.34,20.72-3.07-1.27-192.57-110.7-195.42-112.39-11.51-6.91-22.59-13.81-34.54-20.29-7.91-4.32-16.12-8.35-22.88-14.25-6.02-5.24-12.4-14.16-15.97-21.3-4.4-8.81-6.26-16.01-7.2-25.61-.35-7.23.07-4.13.14-29.74h0c0-339.53,1.12-454.77,1.01-479.52-.6-52.98.62-50,.14-64.47-.23-8.08-.82-16.87,3.02-24.17,2.71-4.83,6.41-7.36,10.07-8.2,11.35-3.78,27.7,8.65,37.7,15.11,10.5,6.76,21.87,12.52,32.95,18.56,26.29,14.2,44.3,26.37,105.05,60.73,64.25,36.63,56.39,32.7,72.38,41.73,11.19,6.03,18.57,10.3,26.77,20.72,5.4,7.09,8.58,13.1,11.22,19.71,4.8,13.21,4.34,20.07,4.03,33.67-.29,15.25.14,30.22.29,45.33.29,22.74-.29,45.62-.43,68.35Z"/>
          <g>
            <path class="cls-3" d="M841.93,644.85c0,8.55-6.93,11.48-15.48,6.54l-213.75-123.41c-8.55-4.94-15.48-15.87-15.48-24.42v-119.5c0-8.55,6.93-11.48,15.48-6.54l213.75,123.41c8.55,4.94,15.48,15.87,15.48,24.42v119.49Z"/>
            <path class="cls-42" d="M753.94,534.31c0,18.98-15.39,25.49-34.37,14.53-18.98-10.96-34.37-35.23-34.37-54.21s15.39-25.49,34.37-14.53c18.98,10.96,34.37,35.23,34.37,54.21Z"/>
            <path class="cls-3" d="M737,521.82c1.24,1.43,2.01,3.2,2.01,4.63s-.76,2.32-2.01,2.32h-22.96c-1.24,0-2.77-.88-4.01-2.32-1.24-1.43-2.01-3.2-2.01-4.63v-26.51c0-1.43.76-2.32,2.01-2.32s2.77.88,4.01,2.32l22.96,26.51Z"/>
          </g>
          <g>
            <path class="cls-3" d="M841.93,808.28c0,8.55-6.93,11.48-15.48,6.54l-213.75-123.41c-8.55-4.94-15.48-15.87-15.48-24.42v-119.5c0-8.55,6.93-11.48,15.48-6.54l213.75,123.41c8.55,4.94,15.48,15.87,15.48,24.42v119.49Z"/>
            <path class="cls-42" d="M753.94,697.74c0,18.98-15.39,25.49-34.37,14.53-18.98-10.96-34.37-35.23-34.37-54.21s15.39-25.49,34.37-14.53c18.98,10.96,34.37,35.23,34.37,54.21Z"/>
            <path class="cls-3" d="M737,685.24c1.24,1.43,2.01,3.2,2.01,4.63s-.76,2.32-2.01,2.32h-22.96c-1.24,0-2.77-.88-4.01-2.32-1.24-1.43-2.01-3.2-2.01-4.63v-26.51c0-1.43.76-2.32,2.01-2.32s2.77.88,4.01,2.32l22.96,26.51Z"/>
          </g>
          <path class="cls-3" d="M841.93,481.87c0,8.55-6.93,11.48-15.48,6.54l-213.75-123.41c-8.55-4.94-15.48-15.87-15.48-24.42v-102.18c0-8.55,6.93-11.48,15.48-6.54l213.75,123.41c8.55,4.94,15.48,15.87,15.48,24.42v102.17Z"/>
          <path class="cls-42" d="M753.94,379.98c0,18.98-15.39,25.49-34.37,14.53-18.98-10.96-34.37-35.23-34.37-54.21s15.39-25.49,34.37-14.53c18.98,10.96,34.37,35.23,34.37,54.21Z"/>
          <path class="cls-3" d="M737,367.49c1.24,1.43,2.01,3.2,2.01,4.63s-.76,2.32-2.01,2.32h-22.96c-1.24,0-2.77-.88-4.01-2.32-1.24-1.43-2.01-3.2-2.01-4.63v-26.51c0-1.43.76-2.32,2.01-2.32s2.77.88,4.01,2.32l22.96,26.51Z"/>
        </g>
        <path class="cls-18" d="M996.55,932.62v-32.45c0-4.52-3.15-9.94-7.02-12.18l182.04-105.09c3.89,2.24,7.02,7.68,7.02,12.16v32.47c0,2.47-.97,3.94-2.06,4.55-60.66,35.02-121.32,70.06-181.97,105.08,1.51-1,1.99-2.74,1.99-4.53Z"/>
        <path class="cls-19" d="M1171.56,782.9l-182.04,105.09-15.08-8.72c-4.42-43.05-8.82-86.11-13.2-129.17l76.76-44.31,133.55,77.11Z"/>
        <path class="cls-19" d="M993.76,937.51c-1.33.4-3.03-.13-4.24-.82l-9.79-5.67c-.28-2.69-.56-5.39-.82-8.08,4.14,2.4,4.96,3.02,6.46,3.25,1.28.17,2.46-.3,2.64-.48,1.14-.67,1.64-1.91,1.85-3.21.17-.88.12.5.12-18.54,0-4.48-3.11-9.92-7.02-12.18l-7.68-4.43c-.28-2.69-.56-5.37-.82-8.08l15.08,8.72c3.87,2.24,7.02,7.66,7.02,12.18v32.45c0,1.8-.49,3.53-1.99,4.53-.04.04-.42.25-.79.36Z"/>
        <path class="cls-60" d="M989.85,922.5c-.73-.27-.36-.11-11.67-6.64-.99-9.49-1.96-19-2.92-28.51l7.68,4.43c3.91,2.26,7.02,7.7,7.02,12.18,0,18.68.05,17.68-.12,18.54Z"/>
        <path class="cls-38" d="M987.91,925.78c-1.63.85-3.36.43-4.96-.49l-4.04-2.34h-.02c-.23-2.36-.48-4.71-.71-7.09,11.23,6.49,10.97,6.38,11.67,6.64-.2,1.31-.71,2.55-1.85,3.21-.03.03-.07.05-.1.07Z"/>
        <path class="cls-17" d="M979.74,931.02c.36,3.63.74,7.25,1.1,10.88.15,1.52-.59,3.46-2.87,5.08l-27.93,19.73c-3.96,2.78-10.22,3.07-14.02.87l-18.33-179.42v-14.45c.08-1.32-.85-2.5-1.88-3.33l.05-.07c3.81,2.21,10.07,1.91,14.02-.87l27.93-19.73c2.16-1.53,3.05-3.36,2.85-5.06.17,0,7.73,77.68,19.07,186.37Z"/>
        <path class="cls-63" d="M946.56,748.73c-.38-.36-.82-.68-1.27-.94h-.02l-.63-6.25c2.87,1.64,3.86,4.6,1.91,7.19Z"/>
        <path class="cls-60" d="M946.56,748.73c-.97,1.36-1.07,1.23-16.73,12.29-3.91,2.75-10.17,3.08-14.01.87l-117.65-67.93c23.95-16.92,19.49-13.77,24.23-17.11,132.24,76.34,123.52,71.26,124.16,71.87Z"/>
        <polygon class="cls-63" points="945.28 747.8 822.4 676.87 818.83 679.39 817.69 668.25 944.65 741.55 945.28 747.8"/>
        <path class="cls-17" d="M917.69,788.15l18.33,179.42-18.33-10.58v-168.84Z"/>
        <path class="cls-26" d="M917.69,983.89c0,1.25-.76,2.82-2.92,4.07l-28.1,16.23c-2.77,1.58-7.15,2.21-11.16,1.15v-207.17c0-.91-.37-1.82-.91-2.54-.54-.69-1.25-1.2-1.99-1.65,3.87,2.26,10.15,2.26,14.06,0,30.51-17.62,29.11-16.61,30.11-17.88.53-.69.87-1.55.91-2.41v210.18Z"/>
        <path class="cls-44" d="M904.46,772.91c.28,1.13-.17,2.83-1.78,4.14-.63-.54,7.84,4.41-123.95-71.67l-4.07,2.36v-11.39l126.96,73.3c1.2.69,2.5,1.9,2.83,3.26Z"/>
        <path class="cls-60" d="M886.67,786.39c-3.91,2.26-10.18,2.24-14.06,0l-117.09-67.6c21.79-12.6,17.83-10.31,23.2-13.41,131.74,76.06,123.31,71.13,123.95,71.67-.69.56-.33.29-16,9.34Z"/>
        <path class="cls-66" d="M875.52,798.17v210.07c0,1.24-.76,2.82-2.9,4.05l-28.11,16.23c-3.87,2.22-10.14,2.27-14.06,0v-210.18c3.92,2.27,10.18,2.22,14.06,0l28.11-16.23c1.43-.84,2.9-2.27,2.9-3.94Z"/>
        <path class="cls-31" d="M862.28,797.25c.29,1.17-.25,2.97-1.78,4.14-.63-.54,7.84,4.41-123.95-71.67l-4.07,2.36v-11.39l126.96,73.3c1.2.71,2.5,1.91,2.83,3.26Z"/>
        <path class="cls-60" d="M860.5,801.39c-.66.56-.15.2-16,9.36-3.87,2.22-10.15,2.26-14.06,0l-117.11-67.62c21.81-12.59,17.85-10.3,23.22-13.41,131.74,76.06,123.31,71.13,123.95,71.67Z"/>
        <polygon class="cls-31" points="830.44 818.35 830.44 1028.53 696.89 951.44 696.89 741.24 830.44 818.35"/>
        <path class="cls-41" d="M944.65,741.55l-126.96-73.3,6.54-4.63,133.54,77.11c3.6,2.05,4.18,6.05.05,8.98l-27.93,19.73c-3.96,2.78-10.22,3.08-14.02.87l-.05.07c-.72-.61,8.61,4.84-133.45-77.19l6.51-4.58c13.51,7.8-5.84-3.38,126.96,73.3,3.84,2.21,10.1,1.88,14.01-.87l14.86-10.5c4.07-2.88,3.6-6.89-.05-8.98Z"/>
        <path class="cls-7" d="M862.35,798.06c.11-1.68-1.45-3.22-2.9-4.07l-126.96-73.3,6.58-3.79c142.69,82.37,134.49,77.39,135.55,78.74,1.88,2.52.66,4.92-1.99,6.48l-28.11,16.23c-3.87,2.22-10.14,2.27-14.06,0l-133.55-77.11,6.59-3.79c11.75,6.78-13.87-8.01,126.96,73.3,3.91,2.26,10.18,2.22,14.06,0,15.77-9.11,15.88-8.97,16.94-10.28.51-.69.87-1.55.91-2.41Z"/>
        <path class="cls-61" d="M915.81,770.37c1.03.83,1.96,2.01,1.88,3.33-.07,1.84-1.32,3.15-2.92,4.05l-28.1,16.23c-3.91,2.26-10.18,2.26-14.06,0l-133.55-77.09,6.59-3.81c81.4,47.1,126.69,73.15,126.96,73.3,3.87,2.24,10.15,2.26,14.06,0,14.77-8.53,15.3-8.78,16-9.34,1.07-.87,1.79-2.01,1.85-3.35.1-1.68-1.46-3.22-2.9-4.05l-126.96-73.3,6.58-3.81c.16.09,133.77,77.15,134.57,77.83Z"/>
        <path class="cls-18" d="M1017.99,748.76l84.01,48.5c3.44,1.99,9.02,1.99,12.47,0l4.14-2.39c3.44-1.99,3.44-5.21,0-7.2l-84.01-48.5c-3.44-1.99-9.02-1.99-12.47,0l-4.14,2.39c-3.44,1.99-3.44,5.21,0,7.2Z"/>
        <path class="cls-62" d="M805.64,851.26l-84.01-48.5c-3.44-1.99-6.23-.81-6.23,2.63v4.14c0,3.44,2.79,7.84,6.23,9.83l84.01,48.5c3.44,1.99,6.23.81,6.23-2.63v-4.14c0-3.44-2.79-7.84-6.23-9.83Z"/>
        <path class="cls-62" d="M805.64,880.62l-84.01-48.5c-3.44-1.99-6.23-.81-6.23,2.63v4.14c0,3.44,2.79,7.84,6.23,9.83l84.01,48.5c3.44,1.99,6.23.81,6.23-2.63v-4.14c0-3.44-2.79-7.84-6.23-9.83Z"/>
        <g>
          <path class="cls-58" d="M707.88,582.05v.22c0,6.08-10.52,7.08-10.52,11.86,0,2.75,6.7,8.03,6.7,13.72,0,12.92-14.47,15.65-27.37,15.65-2.12,0-4.2-.06-6.18-.12h-.01c-.67-5.52-2.78-11.48-6.61-15.04,10.62-5.62,16.1-26.58,42.34-26.58.61,0,1.18.08,1.66.29Z"/>
          <path class="cls-6" d="M468.74,595.23c4.05-3.19,8.8-5.66,14.01-7.41.41,3.04,1.25,5.91,2.45,8.17,2.83.79,5.75,1.13,8.69,1.13,7.47,0,15.12-2.18,22.06-4.71.49-1.97.87-3.98,1.13-6,9.11,2.72,16.19,6.5,21.47,10.11,8.63,5.92,18.88,9.17,29.34,9.08,26.86-.21,56.13,10.72,74.66,6.02,5.81-1.48,11.3-4.04,17-5.9,1.64.55,3.09,1.46,4.35,2.63,3.84,3.56,5.94,9.52,6.61,15.04.15,1.13.23,2.24.25,3.3-35.64,22.4-74.18,15.04-106.31,24.89-7.57,2.32-12.28,9.9-11.22,17.74,4.91,36.39,15.31,77.95,2.56,90.22-.04.04-.08.06-.12.09-11.31,8.93-27.43,14.14-50.24,14.14-21.25,0-35.83-15.83-42.04-35.63h0c-.63-2.04-1.19-4.12-1.64-6.22,1.47-5.62,3.61-15.97,4.76-27.3.48-4.77.79-9.73.79-14.56,0-30.77-7.9-54.78-7.9-71.36,0-5.66.73-11.4,2.92-16.04,1.44-3.07,3.51-5.66,6.43-7.43Z"/>
          <path class="cls-42" d="M575.25,963.55c7.94,0,14.78,6.38,14.78,14.03,0,16.98-38.78,36.05-55.1,36.05-11.57,0-14.03-10.09-14.03-21.67,0-3.4.24-6.8.43-10.21-.43-8.56,6.85-9.71,7.17-11.6,2.36,1.56-1.32,7.98,1.23,7.98,7.89,0,13.54-6.6,18.69-13.7,3.54,4.58,4.15,8.89,3.8,14.4,6.52-7.24,16.13-15.27,23.03-15.27Z"/>
          <path class="cls-12" d="M477.28,924.85c-.94,3.83-1.8,7.29-2.55,10.3-.67,2.71-2.06,5.17-4.02,7.15-1.75,1.76-3.68,3.74-4.07,3.74-6.75,0-12.58,6.67-12.57-16.24h-.01c1.77-12.4,4.82-181.16,9.33-191.67,6.2,19.8,20.78,35.63,42.04,35.63,22.81,0,38.93-5.21,50.24-14.14h.01c1.44,8.55,1.95,17.02,1.95,25.49,0,.48-6.85,155.34-8.42,182.82-1.45,5.95-4.41,9.89-12.7,12.77-3.87,1.35-6.27.99-8.03.07-2.57-1.34-4.44-3.99-4.32-6.89,1.18-27.97-10.73-148.28-22.41-168.44-7.76,24.85-16.31,86.39-24.47,119.4Z"/>
          <path class="cls-42" d="M517.44,582.45c-.08,1.32-.2,2.64-.37,3.95-.26,2.02-.63,4.03-1.13,6-6.94,2.53-14.59,4.71-22.06,4.71-2.94,0-5.86-.34-8.69-1.13-1.2-2.26-2.03-5.12-2.45-8.17-.19-1.39-.28-2.81-.28-4.23,0-5.21,1.3-10.31,4.18-13.2.84,1.76,1.88,3.28,3.12,4.61h0c5.42,5.84,14.21,7.68,22.51,7.68.29,0,.57,0,.87-.01,1.46-.02,2.9-.09,4.3-.22Z"/>
          <path class="cls-58" d="M514.1,577.78c-.39,1.62-.7,3.25-.96,4.89-.29.01-.57.01-.87.01-8.31,0-17.1-1.84-22.51-7.67h0c.08-2.41.13-4.8.15-7.22,3.65.93,7.33.49,11.19,1.74,2.51,2.04,5.71,3.5,9.06,4.22,1.33,1.33,2.64,2.69,3.94,4.03Z"/>
          <path class="cls-42" d="M475.51,932c.55-2.2,1.14-4.59,1.77-7.14,5.14-3.88,11.14-6.65,16.85-6.65,7.01,0,12.88,3.97,12.88,11.5,0,24.88-38.26,44.2-49.14,44.2h-.28c-4.45-1.05-7.88-4.51-7.88-9.91,0-11.45,2.28-19.5,4.35-34.18h.01c1.45,15.35,20.21,7.19,21.45,2.19Z"/>
          <path class="cls-51" d="M467.29,690.06c0,4.83-.3,9.79-.79,14.56h-.01c-10.32-15.28-16.87-37.92-16.87-59.25,0-16.28,3.82-31.8,12.69-42.71-2.18,4.64-2.92,10.38-2.92,16.04,0,16.58,7.9,40.6,7.9,71.36Z"/>
          <path class="cls-12" d="M544.67,498.05c1.63,5.34,1.17,10.68-5.22,12.63-.03,0-.05.01-.07.02-.13.04-.27.08-.4.11-6.36,1.74-7.72,9.33-11.76,10.57-20.54,6.27,9.33,43.54-18,51.89-1.43.44-2.94.73-4.44.86-3.42.3-6.9-.17-9.9-1.39-4.05-.07-7.44,1.42-11.21,1.6-1.47.07-3-.05-4.65-.55-13.26-3.98-21.53-14.69-25.47-27.59-4.38-14.33-4.65-33.77,4.58-49.53,3.75-6.43,9.08-12.25,16.36-16.86,4.33-2.74,9.36-5.07,15.15-6.84,21.85-6.67,48.72,4.43,55.03,25.08Z"/>
          <path class="cls-58" d="M538.98,510.81c.68,1.68,1.28,3.38,1.81,5.11,5.1,16.71,5.16,55.54-13.72,61.3-4.61,1.41-10.34,1.2-17.37-.77,0,.12.01.25.02.37-1.63-.9-3.28-1.82-4.94-2.7,1.51-.13,3.01-.42,4.44-.86,27.34-8.35-2.54-45.61,18-51.89,4.04-1.24,5.4-8.82,11.76-10.57Z"/>
        </g>
        <g>
          <path class="cls-9" d="M1051.65,773.85c14.45,8.34,14.45,21.87,0,30.22-14.45,8.35-37.89,8.35-52.34,0-14.45-8.34-14.45-21.87,0-30.22,14.45-8.34,37.89-8.34,52.34,0Z"/>
          <g>
            <path d="M1057.99,452.5s-.01,0-.02,0c-.58-.33-1.19-.67-1.84-1.01-.02-.01-.03-.03-.02-.05.01-.02.04-.03.05-.02h0c.25.15.46.22,1.84,1.01,0,0,0,0,0,0,.02.01.02.03.01.05,0,.01-.02.02-.03.02Z"/>
            <path class="cls-57" d="M999.47,621.77c-3.2-2.56-5.7-6.08-5.7-10.2v-13.94c0,2.42.87,4.72,2.37,6.78,8.36,11.49,34.2,14.24,49.24,5.56,4.69-2.71,8.84-6.94,8.85-12.34h0v13.94c0,5.39-4.21,9.66-8.86,12.34-13.41,7.74-35.24,6.41-45.9-2.14Z"/>
            <path class="cls-1" d="M996.63,601.4h0c.61,1.41,1.5,2.68,2.54,3.8,8.96,9.62,31.57,11.58,45.01,3.82,3.02-1.75,5.92-4.23,7.37-7.4.17-.36.9-2.27,2.59-5.27h0c.74,5.89-3.62,10.65-8.77,13.63-15.03,8.67-40.87,5.92-49.24-5.56-1.83-2.52-2.75-5.42-2.22-8.52h0c1.05,1.82,1.96,3.66,2.7,5.51Z"/>
            <path class="cls-1" d="M1041.65,650.23c-13.11,9.52-34.98,7.91-41.24.09-2.56-3.19-1.92-6.69,1.09-9.44,7.5,6.88,27.87,7.67,40.15-1.25,2.58-1.88,4.82-4.25,6.13-7.02,3.17,6.74-.1,13.23-6.13,17.61Z"/>
            <path class="cls-1" d="M1000.23,658.77c.41-.68.98-1.42,1.11-1.55,7.47,7.11,28.09,7.78,40.31-1.09,2.59-1.88,4.82-4.26,6.12-7.02,3.18,6.76-.15,13.27-6.12,17.61-8.23,5.97-20.97,7.89-30.78,5.64-5.18-1.19-11.73-4.29-12.03-9.34,0,0,0,0,0,0-.09-1.47.4-2.92,1.39-4.25Z"/>
            <path d="M1048.09,667.48s-.01,0-.02,0c-.02,0-.03-.03-.02-.05h0c.67-1.33.91-2.64.91-4.1,0-.02.02-.04.04-.04,0,0,0,0,0,0,.02,0,.04.02.04.04.04,1.46-.3,2.88-.92,4.13h0s-.02.02-.03.02Z"/>
            <path d="M1049,663.59s-.01,0-.02,0c0,0-.02,0-.02-.04h0c0-.18,0-.29-.01-.44,0-.02.02-.04.04-.04.05,0,.03.04.04.04.02.2.01.26.01.44h0s-.01.03-.02.04c0,0-.01,0-.02,0Z"/>
            <path class="cls-57" d="M998.82,652.08h0v-5.89c0,10.24,26.72,15.74,42.83,4.04,4.31-3.13,7.18-7.31,7.35-11.87v5.46h0c0,5.06-3.23,9.33-7.34,12.32-12.28,8.91-32.86,8.18-40.31,1.09-1.47-1.39-2.52-3.13-2.52-5.14Z"/>
            <path class="cls-57" d="M998.82,635.59v-5.9c0,2.32,1.45,4.61,4.17,6.46,8.7,5.94,27.4,5.77,38.67-2.41,4.13-3,7.34-7.26,7.34-12.31h0v5.9c0,5.07-3.24,9.33-7.35,12.31-12.2,8.86-32.58,8.19-40.15,1.25-1.54-1.4-2.68-3.22-2.68-5.29Z"/>
            <path class="cls-1" d="M1041.65,633.73c-11.26,8.18-29.96,8.36-38.67,2.41-4.74-3.24-5.72-7.89-1.48-11.76,5.97,5.44,17.7,6.15,26.22,4.5,7.37-.52,15.69-2.78,21.25-7.49l.02.02c0,5.09-3.26,9.35-7.34,12.32Z"/>
            <path d="M1047.5,668.53s-.01,0-.02,0c-.02-.01-.02-.04-.01-.05,0,0,0,0,0,0,.11-.18.25-.41.39-.66,0,0,0,0,0,0,.01-.02.03-.03.05-.02.01,0,.02.02.02.03,0,0,0,.01,0,.02-.06.13-.3.52-.39.67,0,.01-.02.02-.03.02Z"/>
            <path d="M1045.7,670.77s-.02,0-.03-.01c-.02-.01-.02-.04,0-.06.1-.1.18-.19.27-.28.01-.02.04-.02.06,0,.02.01.02.04,0,.06h0s0,0,0,0c-.07.07-.12.13-.27.28,0,0,0,0,0,0h0s-.02.01-.03.01Z"/>
            <path d="M1045.4,671.06s-.02,0-.03-.01c-.02-.02-.01-.04,0-.05.1-.09.19-.18.28-.27h0s0,0,0,0c0,0,0,0,0,0,0,0,0,0,.01,0,.02-.02.04-.02.06,0,0,0,.01.02.01.03s0,.02-.01.03c-.39.38-.27.26-.3.29h0s-.02.01-.03.01Z"/>
            <path d="M1044.12,672.17s-.02,0-.03-.02c0,0,0-.02,0-.02,0-.01,0-.02.02-.03.34-.26.66-.54.96-.81.02-.01.04-.01.06,0,0,0,0,.02.01.03,0,.01,0,.02-.01.03-.3.28-.63.55-.97.82,0,0-.02,0-.02,0Z"/>
            <path d="M1041.65,673.83s-.03,0-.03-.02c0,0,0-.01,0-.02,0-.01,0-.03.02-.03.08-.05.39-.23.72-.44.02-.01.04,0,.05.01.01.02,0,.04-.01.05-.22.14-.46.28-.73.44,0,0-.01,0-.02,0Z"/>
            <path class="cls-16" d="M1096.37,513.32c-1.19-45.73-54.18-88.76-105.08-61.67-21.01,11.18-37.28,32.11-40.5,55.04-1.99,14.18,1.28,27.67,7.95,40.54,11.94,23.04,31.3,37.83,37.89,54.18h0c.61,1.41,1.5,2.68,2.54,3.8,8.96,9.62,31.57,11.58,45.01,3.82,3.02-1.75,5.92-4.23,7.37-7.4.17-.36.9-2.27,2.59-5.27,11.27-20.16,43.19-45.92,42.22-83.03Z"/>
            <path class="cls-1" d="M1027.73,628.88c-7.48,1.45-16.69,1.08-23.15-2.37-2.05-1.1-4.07-2.66-5.11-4.75,7.27,5.82,18.75,7.79,28.25,7.12Z"/>
            <path class="cls-1" d="M1044.72,671.62c.25-.18.49-.4.72-.65-1.26,1.32-6.46,6.7-8.68,8.99-5.63,5.81-20.11,5.81-25.71,0-.36-.38-.72-.74-1.1-1.12-2.42-2.51-4.86-5.02-7.31-7.56-.11-.11-.22-.25-.34-.36,1.23,1.21,2.71,2.26,4.39,3.16,1.08.61,2.24,1.12,3.45,1.57.31.11.63.22.94.34.2.09.38.13.58.22.07.02.13.05.2.05.04.02.11.05.16.05.4.13.78.25,1.17.34.25.07.49.13.74.18.25.07.49.13.74.2.87.2,1.77.36,2.69.49.31.07.65.11.99.16.58.07,1.17.13,1.77.18.43.05.87.09,1.32.11.18,0,.34.02.52.02h.11c.65.02,1.28.04,1.93.04,2.6,0,5.22-.22,7.73-.7.52-.09,1.01-.2,1.5-.31.09,0,.16-.02.22-.04.92-.2,1.82-.45,2.67-.74,2.82-.92,5.4-2.17,7.55-3.79.36-.27.7-.54,1.03-.83Z"/>
            <path class="cls-57" d="M1049,654.69v8.86c0,2.62-1.21,4.98-3.05,6.91l-.27.27c-.07.09-.16.18-.25.25-.22.22-.47.43-.72.65-.34.29-.67.56-1.03.83-2.13,1.66-4.71,2.89-7.55,3.79-.85.29-1.75.54-2.67.74-.07.02-.13.04-.22.04-.49.11-.99.22-1.5.31-2.51.47-5.13.7-7.73.7-.65,0-1.3-.02-1.93-.04h-.11c-.27-.02-.54-.02-.78-.07-.36,0-.72-.02-1.05-.07-.6-.05-1.19-.11-1.77-.18-.34-.04-.67-.09-.99-.16-.92-.13-1.82-.29-2.69-.49-.49-.11-.99-.22-1.48-.38-.38-.09-.76-.2-1.17-.34-.04,0-.11-.02-.16-.05-.07,0-.13-.02-.2-.05-1.77-.56-3.43-1.23-4.93-2.06-1.55-.83-2.94-1.79-4.1-2.87-.11-.11-.22-.25-.34-.36.01.01.03.02.04.04-1.07-1.06-1.97-2.2-2.6-3.49-.74-1.55-.99-2.96-.92-4.44.02.2.02.38.07.58.02.18.07.36.11.52.05.2.09.38.16.54.07.18.13.36.22.54.07.18.16.34.25.52.09.16.2.34.31.49.11.16.22.34.36.49.25.31.52.63.83.92.16.16.31.31.49.45.34.31.7.58,1.08.85.56.4,1.21.78,1.88,1.14.22.11.47.22.69.34.25.13.49.25.74.34,2.98,1.28,6.66,2.13,10.65,2.42.29.02.56.04.85.07,1.08.04,2.17.07,3.3.02.38,0,.76-.02,1.17-.05,1.52-.07,3.05-.22,4.6-.49.18,0,.34-.02.49-.07.38-.07.76-.13,1.12-.22h.04c3.39-.69,6.73-1.82,9.8-3.47.81-.4,1.61-.87,2.4-1.39.4-.27.81-.54,1.21-.83,1.93-1.41,3.56-3.03,4.82-4.8.29-.43.58-.87.83-1.32.2-.36.38-.7.54-1.05.13-.27.25-.54.34-.81.11-.27.22-.56.29-.85.09-.29.18-.58.25-.9.07-.27.11-.54.16-.81.02-.11.04-.2.04-.31.04-.38.09-.78.09-1.19Z"/>
            <path class="cls-33" d="M1040.86,533.27c-.45,1.06-2.23,1.01-3.16.11-.54-.52-.61-1.08-.46-1.42.39-1.11,2.23-1.08,3.18-.16.51.49.62,1.04.44,1.47Z"/>
            <path class="cls-48" d="M1029.16,567.17c-.4,1.02-2.87,1.14-3.7.15-.2-.24-.25-.5-.17-.73.04-.08,11.89-34.48,11.92-34.56-.32,1.15,1.34,2.31,2.71,1.97.46-.12.79-.39.94-.73-2.73,7.72-11.62,33.91-11.7,33.91Z"/>
            <path class="cls-4" d="M1029.16,567.17c.64-1.85,1.27-3.69,1.91-5.54,3.04,2.14,2.68,5.21-.6,7.1-4.11,2.37-10.92,1.94-14.08-.78-2.79-2.4-1.66-5.38,1.69-7.01.57,2.3.48,2.43,1.03,2.79,1.26.85,3.62.33,3.44-.77-.25-1.04-.51-2.08-.77-3.11,1.94-.28,3.95-.18,5.74.25-.03.1-2.19,6.38-2.23,6.48-.38,1.11,1.98,1.87,3.33,1.13.23-.13.45-.31.54-.54h0Z"/>
            <path class="cls-20" d="M1032.2,567.35c.55-.65.95-1.45.95-2.31h0v16.08c0,1.59-1.23,2.9-2.68,3.73-5.77,3.33-15.65.95-15.65-3.74v-16.09h0c0,1.2.67,2.17,1.56,2.94,3.91,3.37,12.76,2.99,15.81-.61Z"/>
            <path class="cls-22" d="M1033.16,567.56v13.56c0,1.59-1.23,2.9-2.68,3.73-5.62,3.24-15.65,1.07-15.65-3.74v-13.59c-16.9,3.79-21.54,16.38-8.7,23.8,9.73,5.61,25.66,5.71,35.55,0,12.85-7.42,8.17-19.95-8.52-23.76Z"/>
            <path class="cls-33" d="M1010.61,514.81c-.03.12-.13.21-.22.29-1.04.9-3.75,1.15-3.49.27.03-.12.13-.2.22-.28,1.08-.92,3.78-1.14,3.49-.28Z"/>
            <path class="cls-48" d="M1010.62,514.63h0c3.68,14.9,11.24,45.56,11.92,48.34.18,1.11-2.19,1.62-3.44.77-.24-.16-.44-.38-.49-.63-.02-.07-11.79-47.54-11.72-47.54.16.64,2.52.37,3.5-.47.15-.12.28-.28.23-.47Z"/>
            <path class="cls-68" d="M1049.07,581.05c0,15.26,0,13.56,0,13.86-.15,3.6-2.61,7.18-7.37,9.93-9.83,5.68-25.79,5.67-35.6,0-4.91-2.84-7.37-6.56-7.37-10.28v-13.52c0,3.72,2.46,7.44,7.37,10.28,9.81,5.66,25.77,5.67,35.6,0,4.92-2.84,7.38-6.56,7.38-10.28Z"/>
            <path class="cls-36" d="M1007.84,499.65c-2.03,3.8-6.2,11.34-9.58,13.85-4.42,3.28-6.65-2.54-7.2-8.04-1.66-16.59,9.24-34.95,21.21-41.22,2.64-1.38,6.21-2.42,7.5.28,2.97,6.23-8.75,29.19-11.93,35.14Z"/>
            <g class="cls-15">
              <path class="cls-30" d="M1038.83,533.96c.02-.06-.02-.04,0,0h0Z"/>
              <path class="cls-30" d="M1020.94,568.22s-.24-.6-.59-1.27c-1.46-2.85-2.45-5.92-2.53-5.92-.02,0-.2.2-.39.45-1.61,2.03-.87,4.14,1.2,5.62.52.38,2.23,1.21,2.31,1.12Z"/>
              <path class="cls-30" d="M1053.91,600.08c0,2.4-.02,6.37-.02,13.07-.94,3.65-1.64,4.8-3.9,7.29,0,.02-.04.05-.04.05-.29.34-.61.67-.94,1.05-.02.02-.04.04-.07.07,0,.38,0,.74-.02,1.08-.02,4.57-.02,6.19-.25,7.4-.07.29-.13.54-.22.83-.02.11-.07.25-.13.38-.09.27-.2.56-.36.92-.02.13-.09.29-.16.45,0,.02-.02.04-.02.07.96,2.56,1.08,2.53,1.12,6.84v.83c.07,5.85-.09,5.85-1.12,8.72v.02c.92,2.51,1.12,2.8,1.14,6.61.02.05.02.09,0,.13.02,1.32.02,3.07.02,5.47h.07v2.2c0,2.62-1.21,4.98-3.05,6.91l-.27.27c-.07.09-.16.18-.25.25-1.26,1.32-6.46,6.7-8.68,8.99-5.63,5.81-20.11,5.81-25.71,0-.36-.38-.72-.74-1.1-1.12-.09-.31-.13-.56-.13-.74-.02-.65-.11-.69-1.82-2.56-.52-.56-.96-1.05-1.26-1.39-.02-.02-.05-.05-.05-.07-.2-.22-.31-.36-.31-.36,1.28.78,2.51,1.41,3.77,1.93.31.11.63.22.94.34.27.11.52.18.78.27.04.02.11.05.16.05.4.13.78.25,1.17.34.25.07.49.13.74.18,2.31.56,4.69.83,7.24,1.1.09.02.18.02.27.04.16,0,.34.02.52.04v-.02c0-1.61.02-3.16.02-4.78v-.04c.07,0,1.48-.11,2.94-.25.18-.02.38-.04.61-.07.36-.05.72-.09,1.05-.13.18,0,.34-.02.49-.07.54-.07.94-.16,1.12-.22h.04l.02-.02s.04-.02,0-.04h-.02c-.09-.02-.31-.04-.61-.07-3.05,0-7.17-.76-10.04-1.84-5.38-2.04-9.71-4.64-10.9-7.91-.25-.67-.4-1.86-.27-2.17,0-.02,0-.04.02-.07.02-.04.36.07.74.27.38.2.78.38,1.23.54,1.23.45,2.69.79,4.21,1.01.25.05.49.09.74.11,2.35.29,4.82.4,6.91.43.2,0,.4.02.58,0,.38.02.76.02,1.12.02v-5.92c4.75-.27,5.65-.63,6.19-.63.05,0,.09-.05.09-.09,0-.02-.07-.04-.2-.04-.05-.02-.11-.02-.18-.02-.31-.05-.83-.09-1.41-.11-4.04-.18-8.2-1.26-11.75-3.05-4.69-2.38-8.09-5.02-8.59-8.05-.09-.58-.09-.87.07-.96h.02c.18-.07.54.09,1.12.38.2.09.38.18.58.27h.02c4.1,1.7,9.86,1.82,14.03,1.82v-.16c0-.56-.02-.67-.96-1.84-.99-1.21-3.27-3.77-3.61-4.04-.09-.07-.61-.31-1.14-.56-3.9-1.82-7.38-5.25-8.79-8.72-.49-1.21-1.03-2.2-.94-2.82.02-.29.02-.52-.04-.52-.09,0-.49-.25-.96-.58-.67-.47-1.5-1.12-1.91-1.52-.63-.61-1.43-1.61-1.57-1.93-.04-.11,0-.13.16-.02.29.2.61.4.92.63.45.25.94.52,1.43.76.43.22.87.43,1.35.61,1.3.58,2.71,1.08,4.19,1.5h.02c2.13.61,4.33,1.08,6.46,1.41.38.07.76.11,1.14.16.04.02.09.02.11.02,1.26.18,2.47.31,3.56.4v-.09c0-2.51.05-10.33.05-13.97v-1.19c7.71.11,11.21.22,19.5-3.14.65-.25,2-.81,1.46-.67-.04.02-.13.04-.27.09-.07.02-.13.07-.22.09-.45.16-1.1.34-1.7.4-2.67.29-18-1.41-18.11-1.48-.16-.11-.13-9.17-.13-13.54.78,0,1.55.05,2.31.05,8.97-.02,17.26-3.14,21.57-7.42.76-.76,1.75-2.06,1.75-2.22-.02-.02-.22.02-.67.16-.47.11-1.32.27-1.93.34-.85.09-20,.25-20.96-.02,0-9.53-.09-13.43-.09-22.93-.4-.07-1.91.65-2.06.52-.11-.13-11.84-47.48-11.84-48.22.29-.18.78-.65.81-.54.02.09,10.94,44.5,10.96,44.52,0,0,4.48-.22,5.67.38.11,0,.34-1.03.4-1.14,0,.18.56,1.57,1.03,2.58,1.17,2.44-.16-5.83.49-3.86-.05.13.43,1.1.56,1.59.16.58.31.83.45.67.11-.13,8.41-25.96,8.41-26.05.02.04.13.07.34.09,1.08.16,1.59-.58,1.68-.72-.43,1.35-9.71,28.38-9.71,28.38,0,0,1.93,1.14,1.95,2.56.04,3.63.09,7.38.09,11.68,1.21,0,2.89.29,4.08.29.2-.07,7.49-3.09,7.58-3.16.13,0,1.82,1.68,1.82,1.82,0,.16-2.51,1.1-2.51,1.23,0,.07.16.11.38.11.56,0,2.47.36,2.89.54.29.13.74.31.99.96.67,1.77.58,1.66.67,10.6.25.25.34.47.58.7,2.02,1.99,3.25,4.04,3.95,6.52.16.54.22.54.27,1.28.04.54.04,1.46.04,3.25Z"/>
            </g>
            <g>
              <path class="cls-56" d="M1035.74,534.86c-1.94-.35-2.68-2.39-2.62-4.36,1.45-1.1,3.06-3.08,3.12-4.74.07-1.69-2.04-2.57-3.74.89-.46.96-.76,1.98-.88,2.98-3.26,2.07-6.2.54-6.06-3.52,1.45-1.1,3.05-3.08,3.11-4.73.08-1.79-2.09-2.47-3.74.89-.46.94-.75,1.96-.88,2.98-3.17,2.02-6.21.65-6.07-3.5,1.44-1.1,3.05-3.09,3.11-4.74.07-1.71-2.05-2.55-3.74.89-.46.94-.75,1.96-.88,2.98-1.01.64-2.16,1.04-3.29.88-2.97-.39-3.35-4.46-2.13-7.26h0c.75.55,1.8.24,2.15-.62,1.2-2.88-1.54-4.2-3.44-.35-1.88,3.86-1.01,9.22,3.2,9.79,1.19.17,2.37-.1,3.46-.62.33,4.29,3.84,6.17,7.57,4.37.33,4.38,3.91,6.11,7.57,4.38.19,2.42,1.5,4.53,3.93,4.96.46.08.89-.29.9-.76,0-.31-.19-.71-.66-.79ZM1034.49,526.38c-.16.38-.41.82-.71,1.23.16-.39.44-.9.71-1.23ZM1026.91,522.02c-.16.38-.4.8-.7,1.22.15-.36.41-.83.7-1.22ZM1019.35,517.63c-.16.38-.41.82-.71,1.23.14-.34.44-.9.71-1.23ZM1011.76,513.28c-.16.38-.41.8-.7,1.21.15-.37.42-.84.7-1.21Z"/>
              <path class="cls-29" d="M1034.49,526.38c-.16.38-.41.82-.71,1.23.16-.39.44-.9.71-1.23Z"/>
              <path class="cls-29" d="M1026.91,522.02c-.16.38-.4.8-.7,1.22.15-.36.41-.83.7-1.22Z"/>
              <path class="cls-29" d="M1019.35,517.63c-.16.38-.41.82-.71,1.23.14-.34.44-.9.71-1.23Z"/>
            </g>
          </g>
        </g>
        <g>
          <g>
            <path class="cls-13" d="M291.38,814.36l-163.67,94.49L7.8,839.6c39.06-22.55,141.3-81.57,163.67-94.49,17.92,10.35,49.63,28.67,119.92,69.24Z"/>
            <polygon class="cls-27" points="217.44 859.54 165.17 911.81 140.89 903.74 217.44 859.54"/>
            <polygon class="cls-21" points="165.17 911.81 217.44 859.54 223.3 856.15 165.17 914.3 165.17 911.81"/>
            <polygon class="cls-21" points="165.17 911.81 165.17 914.3 138.17 905.29 140.89 903.74 165.17 911.81"/>
            <polygon class="cls-27" points="155.55 754.31 87.62 793.53 134 747.12 155.55 754.31"/>
            <path class="cls-21" d="M127.71,908.85l163.67-94.49v2.49c-18.16,10.48-163.13,94.17-163.67,94.49v-2.49Z"/>
            <polygon class="cls-27" points="78.57 882.95 18.27 862.85 27.59 853.53 78.57 882.95"/>
            <polygon class="cls-21" points="18.27 862.85 78.57 882.95 88.72 888.83 18.27 865.34 18.27 862.85"/>
            <path class="cls-10" d="M7.8,839.6l119.92,69.24v2.49c-11.36-6.56-114.12-65.89-119.92-69.24v-2.49Z"/>
            <g>
              <path class="cls-32" d="M314.6,800l-26.64,15.38-128.59-74.24,26.64-15.37c.2.11,116.86,67.46,128.59,74.23Z"/>
              <polygon class="cls-67" points="314.6 803.58 287.96 818.96 287.96 815.38 314.6 800 314.6 803.58"/>
              <polygon class="cls-23" points="287.96 818.96 159.37 744.73 159.37 741.14 287.96 815.38 287.96 818.96"/>
              <path class="cls-5" d="M196.57,731.86c-18.96,10.95-17.75,10.33-18.16,10.33-1.04,0-1.33-1.34-.49-1.84l16.69-9.63,1.96,1.14Z"/>
              <path class="cls-5" d="M208.63,738.81c-18.81,10.86-17.77,10.34-18.17,10.34-.99,0-1.38-1.34-.49-1.84l16.67-9.63,1.98,1.13Z"/>
              <path class="cls-5" d="M220.67,745.78c-18.96,10.94-17.78,10.33-18.16,10.33-.97,0-1.39-1.32-.5-1.84l16.69-9.63,1.97,1.14Z"/>
              <path class="cls-5" d="M232.71,752.73c-19,10.96-17.78,10.33-18.16,10.33-1.02,0-1.36-1.34-.5-1.84l16.69-9.63,1.97,1.14Z"/>
              <path class="cls-5" d="M244.76,759.68c-18.96,10.94-17.77,10.33-18.17,10.33-1.05,0-1.33-1.36-.49-1.83l16.69-9.64,1.97,1.14Z"/>
              <path class="cls-5" d="M256.81,766.63c-19,10.97-17.79,10.34-18.17,10.34-.97,0-1.39-1.31-.5-1.84,16.9-9.75,16.57-9.63,16.7-9.63l1.97,1.13Z"/>
              <path class="cls-5" d="M268.84,773.58c-19,10.97-17.78,10.34-18.16,10.34-1.01,0-1.36-1.33-.5-1.84l16.69-9.63,1.97,1.13Z"/>
              <path class="cls-5" d="M280.89,780.54c-19,10.96-17.78,10.33-18.16,10.33-1.02,0-1.36-1.34-.5-1.84l16.69-9.63,1.97,1.14Z"/>
              <path class="cls-5" d="M292.94,787.49c-18.81,10.86-17.77,10.34-18.17,10.34-1.01,0-1.35-1.36-.49-1.84l16.69-9.64,1.97,1.14Z"/>
              <path class="cls-5" d="M304.99,794.44c-19,10.97-17.79,10.34-18.17,10.34-.97,0-1.39-1.31-.5-1.84l16.7-9.63,1.97,1.13Z"/>
            </g>
          </g>
          <g>
            <path class="cls-35" d="M154.28,774.49c-3.52,4.35-3.5,4.55-3.59,4.64-.1.11,0,.42.89,1.67-1.61,2.8-2.92,6.72-2.35,9.74h-.05c-1.46-.84-1.95-2.64-1.95-4.32,0-4.55,3.39-9.95,7.02-11.77l.02.04Z"/>
            <path class="cls-40" d="M290.72,857.6c1.61,1.93,3.23,3.86,4.85,5.79.42.49-.01,1.24-.65,1.12-2.52-.45-5.04-.89-7.56-1.33-.59-.12-.96-.65-1.03-1.41-.15-1.73,1.3-4.03,2.82-4.55.72-.24,1.26-.03,1.56.38Z"/>
            <path class="cls-35" d="M180.05,786.52c112.93,65.21,98.19,56.42,97.02,56.42-.64-.06-1.36.05-2.14.36,0,0,0,0,0,0-1.76.64-3.51,2.23-4.52,3.57-.01,0-.02.01-.02.03-1.71,2.11-2.84,4.83-3.12,6.81-.24,1.3-.16,2.65-.03,3.17.09.7.55,1.65.62,1.68.19.39.73.92,1.04,1.1-104.13-60.11-101.86-58.73-101.83-58.81-.51-.37-.9-.88-1.17-1.48-.8-1.75-.56-4.05-.02-5.89.43-1.45,1.12-2.94,2.04-4.31,8.54,4.93,17.08,9.86,25.63,14.8l3.72-4.63-.28-.39c-8.14-4.7-16.28-9.4-24.42-14.1,1.38-.67,3.03-.96,4.32-.14,1.05.61,2.1,1.21,3.15,1.82Z"/>
            <path class="cls-53" d="M279.67,844.46s0,0-.01-.01c0,0,0,.01.01.03.19.29.15.25,0-.01ZM270.8,860.19c-.11,0-.22,0-.33-.01.11,0,.22.01.33.01ZM287.37,863.18c-5.69-1-11.37-2.01-17.05-3.01h0c.08,0,.12.01-.02-.01-.27-.04-.44-.07-.77-.2-.04-.02-.09-.04-.13-.05-.48-.21-.91-.54-1.22-.93-.15-.16-.17-.23-.3-.43-.01,0-.01-.01-.01-.02-.18-.31-.34-.65-.46-1.04-.02-.04-.18-.68-.18-.79-.28-2.1.18-4.15.98-6.1,0,0,0-.02.01-.03.35-.86.89-1.87,1.67-2.98.1-.16.54-.72.54-.72,1.17-1.46,2.95-3.05,4.71-3.64.85-.3,1.81-.35,2.17-.28.04,0,.28.05.28.05.24.04.55.17.67.22.62.31.75.47,1.16.88.08.11-.86-1.02,11.2,13.35-.35-.35-.85-.43-1.43-.24-1.52.51-2.98,2.82-2.82,4.55.07.76.44,1.3,1.03,1.41Z"/>
            <polygon class="cls-59" points="193.28 803.58 197 798.95 197.28 799.34 193.56 803.97 193.28 803.58"/>
            <path class="cls-52" d="M162.96,774.32c15.56,9,14.89,8.53,14.84,8.6-2.07-1.23-4.63-.27-6.61,1.12-4.95-2.86-9.9-5.72-14.85-8.57.48-.34.98-.65,1.52-.93,1.48-.76,3.65-1.06,5.11-.22Z"/>
            <path class="cls-69" d="M171.19,784.04c1.98-1.39,4.54-2.34,6.61-1.12,1.35.77,1.97,2.05,2.25,3.59-.08-.04-3.32-1.92-3.39-1.96-1.22-.62-2.72-.38-4.08.28-.46-.27-.93-.54-1.4-.8Z"/>
            <path class="cls-69" d="M163.97,797.83c-.1-3.14,1.22-6.59,2.94-9.23h0c.33.19.67.38,1.01.58-.92,1.37-1.62,2.86-2.04,4.31-.54,1.84-.78,4.14.02,5.89.28.6.66,1.11,1.17,1.48h0c1.17.69,2.35,1.37,3.52,2.05-1.54.56-3.02.62-4.43-.25-1.63-1-2.14-2.9-2.19-4.82Z"/>
            <path class="cls-35" d="M154.3,774.42c1.39-.7,3.01-1.03,4.34-.25v.04c-.76.26-1.66.81-2.31,1.27-1.24-.71-1.78-1.08-2.01-1.01l-.02-.04Z"/>
            <path class="cls-52" d="M151.49,794.2c-1.12-.64-1.82-1.92-2.15-3.2-.83-3.5.8-8.04,2.72-10.98,4.95,2.86,9.9,5.71,14.85,8.57,0,.07-3.1,4.38-2.94,9.24.06,1.91.56,3.82,2.19,4.82-.04.07.42.23-14.68-8.45Z"/>
            <path class="cls-59" d="M152.06,780.02c-.11.17-.22.35-.33.53-.28-.41-.56-.8-.84-1.2.39.22.78.45,1.17.67Z"/>
            <path class="cls-46" d="M150.68,779.51c-.38-.56.03-.51.62-.17,13.99,8.08,27.99,16.16,41.98,24.24l.28.39c-20.47-11.82-39.87-23.02-42.67-24.63.28.41.56.8.84,1.2-.04.08-.09.17-.14.25-.3-.43-.61-.86-.91-1.29Z"/>
            <g class="cls-15">
              <path class="cls-14" d="M302.37,873.54c-1.07-.32-2.14-.63-3.2-.96-7.83-2.4-15.64-4.87-23.49-7.19-3.7-1.09-6.86-3.18-10.13-5.06-30.3-17.47-60.58-34.99-90.86-52.49-1.38-.79-2.71-1.52-4.44-1.43-.88.04-1.87-.44-2.69-.91-4.07-2.29-8.1-4.65-12.13-7.01-.93-.54-2.08-.79-1.93-2.45.05-.63-1.2-1.37-2.01-1.87-.6-.36-1.67-1.44-1.85-2.34,5.02,2.72,9.79,5.58,14.6,8-.72-3.65.17-7.05,2.2-10.5-5.13-3-9.83-5.62-14.86-8.56,0,0-.6-.85-.92-1.32-.18-.26-.2-.43.04-.39,4.7,2.41,10,5.7,14.59,8.32,4.59,2.62,8.84,5.14,13.42,7.77,4.65,2.68,9.77,5.64,14.56,8.4.89-1,1.62-2.12,2.61-3.22,1.09.61,2.3,1.27,3.46,1.92-1.19,1.54-2.31,2.98-3.58,4.62-9.24-5.32-18.53-10.66-27.97-16.1-1.54,2.58-1.96,5.12-.96,7.68.36.93,1.46,1.7,2.39,2.25,6.84,4.01,13.73,7.94,20.59,11.9,24.88,14.35,49.77,28.69,74.61,43.11,1.67.97,3.39,1.24,5.16,1.68,3.84.97,7.65,2.04,11.48,3.08,4.16,1.13,8.33,2.26,12.49,3.4.5.14,1.13.21,1.45.56,2.59,2.85,5.12,5.75,7.67,8.63-.1.15-.2.29-.3.44Z"/>
              <path class="cls-8" d="M171.86,784.15c3.82-2.89,6.57-2.25,7.66,1.42-.59-.21-1.07-.33-1.5-.55-1.21-.61-2.39-.88-3.79-.48-.7.2-1.57-.24-2.37-.39Z"/>
            </g>
            <path class="cls-69" d="M150.55,779.12c1.25-1.54,2.48-3.08,3.72-4.63l-.02-.04s.03-.02.05-.03l.02.04c.27-.08-1.53-1.04,42.68,24.49l-3.73,4.63c-43.96-25.4-42.53-24.66-42.72-24.46Z"/>
          </g>
        </g>
        <g>
          <path class="cls-55" d="M369.65,97.37l2.97,4.3c.24.35.71.42,1.26.19l6.64-2.87c1.37-.59,1.92.78.93,2.32l-4.81,7.46c-.39.61-.57,1.27-.48,1.76l1.13,5.96c.23,1.23-1.2,3.1-2.43,3.16l-5.94.31c-.49.03-1.07.36-1.56.9l-5.94,6.55c-1.23,1.35-2.66,1.14-2.43-.36l1.13-7.27c.09-.6-.09-1.05-.48-1.2l-4.81-1.91c-.99-.39-.44-2.4.93-3.39l6.64-4.8c.54-.39,1.02-1.01,1.26-1.64l2.97-7.73c.61-1.6,2.39-2.62,3-1.73Z"/>
          <g>
            <path class="cls-47" d="M429.83,225.21l-5.23,3.02-6.71,3.87c.96-.56,1.8-1.62,2.15-3.36.62-3.08-.55-6.77-2.15-9.55l-34.76-60.22,13.25-7.65,34.77,60.22c1.6,2.78,2.76,6.47,2.15,9.55-.35,1.74-1.19,2.8-2.15,3.36l-1.24.72-.07.04Z"/>
            <path class="cls-54" d="M417.88,219.19l-34.75-60.23c3.76-4.88,5.33-11.33,5.6-17.54.45-9.62-1.97-19.72-5.62-28.65-4.02-9.78-9.89-19.19-17.08-27-6.53-7.06-14.95-13.62-24.04-16.39-6.98-2.11-13.22-1.63-18.15,1.23-4.88,2.8-8.45,7.94-10.13,15.11-2.16,9.25-.67,19.85,2.19,28.99,3.14,10.13,8.37,19.93,14.82,28.28,5.92,7.65,13.46,14.79,21.99,19.21,5.52,2.88,11.89,4.74,18.02,3.92l34.75,60.23c1.17,2,2.75,3.92,4.61,5.25,1.95,1.41,4.53,2.37,6.58,1.2l1.23-.72c.99-.56,1.81-1.63,2.16-3.36.61-3.09-.53-6.77-2.16-9.54ZM374.77,143.54c-.32.69-.72,1.33-1.15,1.95-2.35,3.41-5.7,5.33-9.83,5.7-5.7.48-11.67-2.35-16.31-5.68-11.97-8.63-21.37-24.94-22.87-39.6-.59-5.7-.03-12.29,3.25-16.98,2.35-3.38,5.7-5.33,9.83-5.68.75-.05,1.49-.05,2.27-.03,4.98.29,10.02,2.8,14.04,5.7,11.97,8.61,21.37,24.94,22.87,39.6.51,4.96.16,10.55-2.11,15Z"/>
            <path class="cls-47" d="M336.94,63.05s.09-.05.14-.08c4.38-2.53,10.29-3.46,17.58-1.38,9.17,2.62,17.72,9.18,24.31,16.24,7.28,7.82,13.22,17.25,17.27,27.05,3.71,8.97,6.16,19.14,5.75,28.79-.27,6.26-1.83,12.75-5.61,17.65l-13.25,7.65c3.77-4.89,5.33-11.34,5.61-17.55.43-9.6-1.98-19.72-5.64-28.65-4-9.77-9.88-19.18-17.07-26.97-6.51-7.06-14.96-13.63-24.03-16.39-6.98-2.12-13.23-1.63-18.15,1.21h0c4.37-2.52,8.74-5.05,13.11-7.57Z"/>
            <path class="cls-47" d="M374.77,143.54c-.32.69-.72,1.33-1.15,1.95-2.35,3.41-5.7,5.33-9.83,5.7-5.7.48-11.67-2.35-16.31-5.68-11.97-8.63-21.37-24.94-22.87-39.6-.59-5.7-.03-12.29,3.25-16.98,2.35-3.38,5.7-5.33,9.83-5.68.75-.05,1.49-.05,2.27-.03-1.57,3.14-2.32,6.93-2.32,11.09,0,12.45,6.66,28.04,17.54,38.83,3.06,3.04,6.48,5.7,10.34,7.67,2.88,1.47,6.05,2.53,9.25,2.72Z"/>
            <path class="cls-24" d="M374.77,143.54c-3.2-.19-6.37-1.25-9.25-2.72-3.86-1.97-7.28-4.64-10.34-7.67-10.87-10.79-17.54-26.38-17.54-38.83,0-4.16.75-7.94,2.32-11.09,4.98.29,10.02,2.8,14.04,5.7,11.97,8.61,21.37,24.94,22.87,39.6.51,4.96.16,10.55-2.11,15Z"/>
          </g>
        </g>
      </g>
    </g>
  </g>
</svg>