<?xml version="1.0" encoding="UTF-8"?>
<svg id="Layer_2" data-name="Layer 2" xmlns="http://www.w3.org/2000/svg" viewBox="0 0 1082.35 1034.91">
  <defs>
    <style>
      .cls-1 {
        fill: #ffba00;
      }

      .cls-2 {
        fill: #363e44;
      }

      .cls-3 {
        fill: #fff;
      }

      .cls-4 {
        fill: #e2a18d;
      }

      .cls-5 {
        fill: #363e44;
      }

      .cls-6 {
        fill: #00a9b7;
      }

      .cls-7 {
        fill: #8accce;
      }

      .cls-8 {
        fill: #f7f1eb;
      }
    </style>
  </defs>
  <g id="Sign_in_page" data-name="Sign in page">
    <g>
      <g>
        <rect class="cls-3" x="620.18" y="74.62" width="384.27" height="724.94"/>
        <g>
          <path class="cls-5" d="M990.25,843.57h-358.52c-23.16,0-42-18.84-42-42V65.72c0-23.16,18.84-42.01,42-42.01h358.52c23.16,0,42,18.84,42,42.01v735.85c0,23.16-18.84,42-42,42ZM631.72,26.12c-21.83,0-39.6,17.76-39.6,39.6v735.85c0,21.83,17.76,39.6,39.6,39.6h358.52c21.83,0,39.6-17.76,39.6-39.6V65.72c0-21.83-17.76-39.6-39.6-39.6h-358.52Z"/>
          <path class="cls-5" d="M865.26,52.85h-105.9c-.66,0-1.2-.54-1.2-1.2s.54-1.2,1.2-1.2h105.9c.66,0,1.2.54,1.2,1.2s-.54,1.2-1.2,1.2Z"/>
        </g>
      </g>
      <g>
        <g>
          <path class="cls-7" d="M811.95,342.9c-54.45,0-98.75-44.3-98.75-98.75s44.3-98.75,98.75-98.75,98.75,44.3,98.75,98.75-44.3,98.75-98.75,98.75ZM811.95,147.81c-53.12,0-96.34,43.22-96.34,96.34s43.22,96.34,96.34,96.34,96.34-43.22,96.34-96.34-43.22-96.34-96.34-96.34Z"/>
          <path class="cls-7" d="M811.95,244.76c-31.02,0-51.16,11.88-51.16,30.92,9.68,18.38,28.95,30.92,51.16,30.92s41.49-12.54,51.16-30.92c0-18.04-22.14-30.92-51.16-30.92Z"/>
          <circle class="cls-7" cx="811.95" cy="203.56" r="26.39"/>
        </g>
        <g>
          <path class="cls-6" d="M922.59,469.61l-223.01.69c-17.94.06-32.53-14.44-32.58-32.38h0c-.06-17.94,14.44-32.53,32.38-32.58l223.01-.69c17.94-.06,32.53,14.44,32.58,32.38h0c.06,17.94-14.44,32.53-32.38,32.58Z"/>
          <path class="cls-6" d="M922.59,597.64l-223.01.69c-17.94.06-32.53-14.44-32.58-32.38h0c-.06-17.94,14.44-32.53,32.38-32.58l223.01-.69c17.94-.06,32.53,14.44,32.58,32.38h0c.06,17.94-14.44,32.53-32.38,32.58Z"/>
        </g>
        <g>
          <circle class="cls-3" cx="722.22" cy="438.32" r="9.37" transform="translate(-81.39 177.66) rotate(-13.28)"/>
          <circle class="cls-3" cx="757.87" cy="438.32" r="9.37" transform="translate(-80.43 185.85) rotate(-13.28)"/>
          <circle class="cls-3" cx="792.37" cy="438.32" r="9.37" transform="translate(-79.51 193.77) rotate(-13.28)"/>
          <circle class="cls-3" cx="828.01" cy="438.32" r="9.37" transform="translate(-67.42 713.87) rotate(-45)"/>
          <circle class="cls-3" cx="863.88" cy="438.32" r="9.37" transform="translate(-77.6 210.2) rotate(-13.28)"/>
          <circle class="cls-3" cx="899.52" cy="438.32" r="9.37" transform="translate(-46.48 764.44) rotate(-45)"/>
        </g>
        <rect class="cls-7" x="733.96" y="666.54" width="169.36" height="47.94" rx="9.73" ry="9.73"/>
        <g>
          <circle class="cls-3" cx="722.22" cy="568.16" r="9.37" transform="translate(-111.22 181.13) rotate(-13.28)"/>
          <circle class="cls-3" cx="757.87" cy="568.16" r="9.37" transform="translate(-110.26 189.32) rotate(-13.28)"/>
          <circle class="cls-3" cx="792.37" cy="568.16" r="9.37" transform="translate(-109.34 197.25) rotate(-13.28)"/>
          <circle class="cls-3" cx="828.01" cy="568.16" r="9.37" transform="translate(-159.23 751.9) rotate(-45)"/>
          <circle class="cls-3" cx="863.88" cy="568.16" r="9.37" transform="translate(-107.43 213.68) rotate(-13.28)"/>
          <circle class="cls-3" cx="899.52" cy="568.16" r="9.37" transform="translate(-138.29 802.47) rotate(-45)"/>
        </g>
      </g>
    </g>
    <g>
      <path class="cls-2" d="M477.05,1014.99H110.07c-12.85-28.62-10.9-69.19,12.83-126.27,17.91-15.37,38.67-27.03,61.97-33.08,34.89-9.05,71.71-5.46,106.25,3.38,36.19,9.28,72.4,20.6,105.2,38.84,16.21,9.01,31.56,19.8,44.66,32.99,7.33,7.37,7.19-.9,13.41,7.38,4.95,6.58,17.28,48.42,22.66,76.77Z"/>
      <g>
        <path class="cls-4" d="M369.57,498.84c-12.39-25.34-21.84-39.01-38.14-44.52-21.9-7.4-42.85,7.06-45.01,8.6-1.38.98-21.87,13.81-22.78,38.11-.9,24,10.94,47.64,31.4,59.79l5.94,52.72c1.91,16.93,17.17,29.1,34.1,27.19l3.83-.43c16.93-1.91,29.1-17.17,27.19-34.1l-3.97-35.22c10.64-2.11,18.78-6.18,21.57-12,5-10.43.45-30.3-14.14-60.14Z"/>
        <path class="cls-2" d="M362.52,571.29c-.59,0-1.11-.43-1.19-1.04l-1.8-12.85c-.09-.66.37-1.27,1.02-1.36.66-.1,1.27.37,1.36,1.02l1.8,12.85c.09.66-.37,1.27-1.03,1.36-.06,0-.11.01-.17.01Z"/>
        <path class="cls-2" d="M340.6,534.72c-.28,0-.56-.1-.79-.3-1.65-1.44-3.13-2.78-4.67-4.17-1.25-1.13-2.54-2.3-3.99-3.58-.5-.44-.54-1.2-.1-1.7.44-.49,1.2-.54,1.7-.1,1.46,1.29,2.76,2.47,4.01,3.6,1.53,1.38,3,2.71,4.64,4.14.5.44.55,1.2.12,1.7-.24.27-.57.41-.91.41Z"/>
        <path class="cls-2" d="M232,516.3c-4.6-13.37,2.5-27.94,15.87-32.54.02,0,.04-.01.06-.02-2.13-2.23-3.84-4.92-4.91-8.03-3.96-11.51,2.15-24.06,13.67-28.02,2.41-.83,4.85-1.19,7.26-1.18-3.15-11.17,2.91-22.98,14.02-26.81,6.28-2.16,12.85-1.31,18.19,1.77,2-8.21,8-15.26,16.58-18.22,12.98-4.47,27.09,2.07,32.16,14.66.6-.27,1.21-.52,1.84-.74,11.51-3.96,24.06,2.15,28.02,13.67,3.96,11.51-2.15,24.06-13.67,28.02-.33.11-.67.19-1,.29,5.41,20.85-15.34,30.52-16.51,31.27,5.58,8.5,11.16,17,16.74,25.5-3.22,2.21-6.98,5.09-10.2,7.3-5.36-9.1-10.5-11.6-16.29-10.73-9.12,1.37-14.51,11.95-12.47,20.64,1.86,7.94,7.33,15.06,16.12,16.9-8.65,3.13-17.79,6.15-27.41,8.98-5.02,1.48-9.95,2.84-14.79,4.09-3.51-.92-26.17-7.25-37.78-29.58-11.1.56-21.69-6.19-25.49-17.23Z"/>
      </g>
      <g>
        <g>
          <path class="cls-4" d="M70.17,868.37c108.73,24.19,173.13,39.53,197.03,44.55,2.5.52,6.92,1.47,12.77,1.1,21.7-1.37,28.42-18.63,50.58-30.48,25.14-13.45,46.92-6.79,48.43-13.91,1.05-4.96-6.46-9.78-24.1-13.24,0,0,0,0,0,0,13.71,1.09,32.37,1.76,32.95-5.82.2-8.79-21.63-12.15-34.93-13.53,16.1,1.68,25.17-2.25,24.44-6.55-1.15-6.78-13.33-10.99-34.7-12.38,0,0,0,0,0,0,15.02-3.16,18.2-6.17,16.63-9.82-2.87-6.66-20.46-7.48-36.12-5.81-17.63,1.87-30.65,9.44-38.75,14.41,0,0,0,0,0,0-74.4-24.84-123.71-40.82-183.38-62.1-12.21-4.35-30.83,113.6-30.83,113.6Z"/>
          <path class="cls-4" d="M148.68,640.92c-98.9,114.88-129.55,201.93-84.89,225.43,25.3,13.31,100.58-39.95,171.75-136.76-30.88-28.21-48.65-55.51-86.86-88.67Z"/>
        </g>
        <g>
          <path class="cls-4" d="M515.11,653.03c123.52,26.27,220.53,52.89,209.93,92.52-22.42,83.89-115.61,40.77-198.44,40.04-3.12-34.02-8.61-91.31-11.49-132.55Z"/>
          <g>
            <path class="cls-4" d="M641.54,688.24s37.07-81.46,59.77-123.26c23.84-43.89,65.43-105.23,73.93-99.3,4.84,3.38.9,12.91-11.33,37.71,1.87-.64,7.63-1.43,11.61,2.44,5.89,5.73,2.95,12.03,2.92,12.7.62-.27,7.35-2.96,11.94.21,5.17,3.56,6.45,8.86,5.48,13.7,1.55-.61,7.51-2.3,11.83.87,4.45,3.26,6.72,9.9,3.9,14.91-5.18,9.2-21.08,36.25-27.21,50.36-12.07,27.76-41.72,132.11-69.77,167.63-20.97-33.09-73.07-77.96-73.07-77.96Z"/>
            <g>
              <path class="cls-2" d="M800.97,556.68c-.25,0-.5-.08-.72-.24l-7.16-5.32c-.53-.4-.65-1.15-.25-1.68.4-.53,1.15-.64,1.68-.25l7.16,5.32c.53.4.65,1.15.25,1.68-.24.32-.6.49-.97.49Z"/>
              <path class="cls-2" d="M783.45,544.16c-.26,0-.53-.08-.75-.26l-7.91-6.27c-.52-.41-.61-1.17-.2-1.69.41-.52,1.17-.61,1.69-.2l7.91,6.27c.52.41.61,1.17.2,1.69-.24.3-.59.46-.94.46Z"/>
              <path class="cls-2" d="M765.95,529.76c-.25,0-.5-.08-.72-.24-1.34-.99-2.54-1.9-3.75-2.8-1.2-.9-2.4-1.8-3.73-2.79-.53-.4-.65-1.15-.25-1.68.39-.53,1.15-.65,1.68-.25,1.34.99,2.54,1.9,3.75,2.8,1.2.9,2.4,1.8,3.73,2.79.53.4.65,1.15.25,1.68-.24.32-.6.49-.97.49Z"/>
              <path class="cls-2" d="M750.44,519.3c-.22,0-.44-.06-.64-.19l-7.48-4.74c-.56-.36-.73-1.1-.37-1.66.36-.56,1.1-.73,1.66-.37l7.48,4.74c.56.36.73,1.1.37,1.66-.23.36-.62.56-1.02.56Z"/>
            </g>
          </g>
        </g>
        <path class="cls-1" d="M106.09,666.15c13.3-25.01,35.85-43.89,62.89-52.32,34.44-10.74,86.72-21.13,149.34-14.48,116.77,12.4,248.99,53.69,248.99,53.69v170.79l-85.13-17.75-18.62,139.51-348.17-59.29,14.86-98.3-60.08-54.27,35.92-67.57Z"/>
      </g>
    </g>
    <g>
      <g>
        <g>
          <path class="cls-8" d="M76.78,189.89v83.61c0,59.24,48.03,107.27,107.27,107.27h0c59.24,0,107.27-48.03,107.27-107.27v-83.61H76.78Z"/>
          <path class="cls-2" d="M184.05,381.97c-59.81,0-108.47-48.66-108.47-108.47v-83.61c0-.67.54-1.2,1.2-1.2h214.54c.66,0,1.2.54,1.2,1.2v83.61c0,59.81-48.66,108.47-108.47,108.47ZM77.99,191.09v82.41c0,58.48,47.58,106.06,106.06,106.06s106.06-47.58,106.06-106.06v-82.41H77.99Z"/>
        </g>
        <path class="cls-2" d="M279.5,168.61c-.66,0-1.2-.54-1.2-1.2,0-51.97-42.28-94.25-94.25-94.25s-94.25,42.28-94.25,94.25c0,.67-.54,1.2-1.2,1.2s-1.2-.54-1.2-1.2c0-53.3,43.36-96.65,96.66-96.65s96.65,43.36,96.65,96.65c0,.67-.54,1.2-1.2,1.2Z"/>
      </g>
      <polygon class="cls-6" points="182.03 321.22 138.52 281.66 151.96 265.09 179.55 287.13 222.84 224.3 240.45 236.43 182.03 321.22"/>
    </g>
  </g>
</svg>