<?xml version="1.0" encoding="UTF-8"?>
<svg id="Layer_3" data-name="Layer 3" xmlns="http://www.w3.org/2000/svg" viewBox="0 0 1082.35 1034.91">
  <defs>
    <style>
      .cls-1 {
        fill: #ffba00;
      }

      .cls-2 {
        fill: #ffd968;
      }

      .cls-3 {
        fill: #363e44;
      }

      .cls-4, .cls-5, .cls-6, .cls-7, .cls-8 {
        fill: #fff;
      }

      .cls-4, .cls-9, .cls-7 {
        opacity: .4;
      }

      .cls-4, .cls-10, .cls-11, .cls-12, .cls-13, .cls-14, .cls-15, .cls-16 {
        stroke: #363e44;
      }

      .cls-4, .cls-12, .cls-16 {
        stroke-miterlimit: 10;
      }

      .cls-17, .cls-18 {
        opacity: .3;
      }

      .cls-6 {
        opacity: .79;
      }

      .cls-10 {
        stroke-width: 8.68px;
      }

      .cls-10, .cls-11, .cls-13, .cls-14, .cls-15 {
        fill: none;
        stroke-linecap: round;
        stroke-linejoin: round;
      }

      .cls-19 {
        fill: #f1f2f2;
      }

      .cls-20 {
        opacity: .2;
      }

      .cls-20, .cls-21, .cls-18, .cls-12 {
        fill: #6d6e71;
      }

      .cls-11 {
        stroke-width: 9.88px;
      }

      .cls-22 {
        fill: #a7a9ac;
      }

      .cls-13 {
        stroke-width: 11.57px;
      }

      .cls-23, .cls-16 {
        fill: #939598;
      }

      .cls-8 {
        opacity: .74;
      }

      .cls-14 {
        stroke-width: 13.18px;
      }

      .cls-24 {
        fill: #fdffe9;
      }

      .cls-25 {
        fill: #ff969f;
      }

      .cls-15 {
        stroke-width: 10.53px;
      }

      .cls-26 {
        fill: #e6e7e8;
      }
    </style>
  </defs>
  <path class="cls-1" d="M306.28,1007.96h546.76c106.12-81.9,174.49-210.35,174.49-354.77,0-247.35-200.52-447.87-447.87-447.87s-447.87,200.52-447.87,447.87c0,144.42,68.36,272.87,174.49,354.77Z"/>
  <path class="cls-5" d="M815.77,447.83s133.88,28.74,224.64,0c0,0-37.9-3.38-53.61-20.82-15.71-17.43-35.25-13.61-46.18,9.51,0,0,5.11-30.11-25.01-49.13-30.11-19.02-50.72,36.61-50.72,36.61,0,0,0,22.46-49.13,23.83Z"/>
  <path class="cls-5" d="M59.5,931.69s249.9,53.65,419.33,0c0,0-70.75-6.31-100.07-38.86-29.32-32.54-65.79-25.41-86.19,17.75,0,0,9.53-56.21-46.68-91.72-56.21-35.5-94.67,68.33-94.67,68.33,0,0,0,41.92-91.72,44.49Z"/>
  <path class="cls-24" d="M522.69,54.23s50.3,24.68,107.66,0c0,0,41.2,47.28,43.32,119.93l-15.49,299.24s-47.89,14.85-61.39,12.22l4.01-62.2s-20.77-14.71-48.22,0l4.99,62.2s-45.92-3.57-61.26-12.22l-16.6-299.24s-1.49-59.5,42.99-119.93Z"/>
  <path class="cls-20" d="M574.87,416.12c-18.61-3.06-31.26,5.9-31.26,5.9l3.09,47.82c-.1-.01-.19-.02-.29-.03-20.27-2.27-35.93-18.86-37.06-39.23l-14.22-256.42s-1.41-56.53,39.71-115.35c-7.72-2.41-12.14-4.58-12.14-4.58-34.3,46.6-41.26,92.64-42.65,111.27h0s0,0,0,0c-.36,4.85-.35,7.84-.34,8.5,0,0,0,0,0,0,0,.04,0,.08,0,.1,0,.03,0,.04,0,.04l16.6,299.24c15.34,8.64,61.26,12.22,61.26,12.22l-.09-1.12c2.2.09,4.09.01,5.57-.28l-4.01-62.2s6.01-4.26,15.84-5.9Z"/>
  <path class="cls-5" d="M673.3,166.6l-15.12,292.09s-.23.07-.65.2l14.74-284.73c-2.13-72.65-43.32-119.93-43.32-119.93-4,1.72-7.97,3.2-11.89,4.46,10.02,13.36,38.05,55.87,39.79,115.46l-13.24,255.81c-1.17,22.57-19.42,40.72-42.02,41.23-1.45.03-2.74-.01-3.86-.16l-.87,13.51c-.48.08-.95.16-1.42.24l-.05.83c1.28.25,2.88.34,4.71.3,16.65.33,58.08-12.52,58.08-12.52l15.49-299.24c-.07-2.55-.2-5.07-.37-7.56Z"/>
  <circle class="cls-20" cx="567.98" cy="316.56" r="49.66" transform="translate(138.18 804.5) rotate(-77.76)"/>
  <circle class="cls-19" cx="576.98" cy="316.56" r="49.66" transform="translate(163.79 828.8) rotate(-79.86)"/>
  <path class="cls-18" d="M537.12,316.56c0-25.77,19.63-46.96,44.76-49.42-1.61-.16-3.25-.24-4.91-.24-27.43,0-49.66,22.24-49.66,49.66s22.24,49.66,49.66,49.66c1.66,0,3.29-.08,4.91-.24-25.13-2.46-44.76-23.65-44.76-49.42Z"/>
  <path class="cls-6" d="M576.98,266.9c-1.54,0-3.05.08-4.56.22,25.29,2.3,45.11,23.56,45.11,49.45s-19.82,47.15-45.11,49.45c1.5.14,3.02.22,4.56.22,27.43,0,49.66-22.24,49.66-49.66s-22.24-49.66-49.66-49.66Z"/>
  <path class="cls-19" d="M807.26,969.72c66.59-22.09,93.5,66.21,93.5,66.21H212.55c15.42-34.34,69.07-29.8,69.07-29.8-14.33-29.8,8.02-51.77,8.02-51.77,28.03-31.81,58.17-19.34,58.17-19.34,32.94-53.25,75.65-28.73,75.65-28.73,29.4-78.48,110.33-76.38,110.33-76.38l14.32-281.19,13.71,3.4,2.72,52.1c9.99,9.11,21.29.97,21.29.97l5.92-53.07,14.35-3.4,17.3,325.98c96.89-25.27,121.76,64.36,121.76,64.36,35.74-1.56,58.87,30.67,58.87,30.67"/>
  <path class="cls-26" d="M290.72,1021.03s-36.74.15-36.74,14.9h51.08l-14.34-14.9Z"/>
  <path class="cls-26" d="M561.98,1035.93s-32.59-33.32-71.48,0h71.48Z"/>
  <path class="cls-26" d="M546.21,569.24s42.05-9.46,36.79,48.35c-5.26,57.81-9.41,268.66-55.69,300.94l-1.8,69.93,27.06,27.85s30.98-70.81,73.28-81.29l-19.74-386.3s-43.47,5.75-57.99,0l-1.91,20.53Z"/>
  <polygon class="cls-5" points="561.82 552.12 540.54 1000.66 525.52 987.76 548.12 548.72 561.82 552.12"/>
  <circle class="cls-2" cx="576.98" cy="316.56" r="31.31" transform="translate(164.4 829.3) rotate(-79.93)"/>
  <path class="cls-18" d="M583.99,340.87c-17.29,0-31.31-14.02-31.31-31.31,0-6.86,2.21-13.19,5.95-18.35-7.85,5.69-12.96,14.93-12.96,25.36,0,17.29,14.02,31.31,31.31,31.31,10.43,0,19.67-5.11,25.36-12.96-5.16,3.74-11.49,5.95-18.35,5.95Z"/>
  <path class="cls-25" d="M552.58,423.42l14.51,180.94s10.78,10.68,18.75.83l14.97-181.77s-21.23-16.81-48.22,0Z"/>
  <path class="cls-25" d="M636.72,479.36l-8.81,205.52s17.58,3.82,27.01-14.36l55.96-157.8s12.3-24.59-25.99-79.85c0,0-1.07,18.1-4.27,24.87,0,0,3.22,12.62-43.9,21.61Z"/>
  <path class="cls-25" d="M518.24,479.36l8.81,205.52s-17.58,3.82-27.01-14.36l-55.96-157.8s-12.3-24.59,25.99-79.85c0,0,1.07,18.1,4.27,24.87,0,0-3.22,12.62,43.9,21.61Z"/>
  <polygon class="cls-22" points="518.24 479.36 543.59 545.52 561.82 552.12 557.56 485.62 518.24 479.36"/>
  <polygon class="cls-22" points="636.11 479.36 610.76 545.52 592.53 552.12 596.79 485.62 636.11 479.36"/>
  <g class="cls-9">
    <polygon class="cls-5" points="592.63 550.55 592.53 552.12 599.05 549.76 592.63 550.55"/>
    <polygon class="cls-5" points="623.01 481.45 608.02 546.51 610.76 545.52 636.11 479.36 623.01 481.45"/>
  </g>
  <path class="cls-16" d="M522.69,54.23s54.03,25.15,107.66,0c0,0-49.34-72.97-107.66,0Z"/>
  <path class="cls-18" d="M535.31,56.34c20.08-25.12,39.09-32.94,55.39-32.4-18.7-5.61-42.5-1.63-68.01,30.3,0,0,15.62,7.26,38.39,10.08-15.73-3.3-25.78-7.98-25.78-7.98Z"/>
  <path class="cls-7" d="M616.33,57.04c-7.08,3.32-14.17,5.76-21.15,7.5,11.76-1.37,24.17-4.49,36.56-10.3,0,0-29.58-43.74-70-29.62,32.31-.52,54.59,32.42,54.59,32.42Z"/>
  <path class="cls-26" d="M527.31,917.83s-59.27-1.67-84.31,58.21c0,0-95.47,5.19-99.67,59.88h80.13s9.58-45.54,44.09-26.96c0,0,20.45-26.32,57.96-21.21l1.8-69.93Z"/>
  <path class="cls-22" d="M491.74,396.36l4.57,77.05s-18.09-3.74-21.97-15.65c-3.88-11.91-6.78-44.15-6.78-44.15l24.19-17.25Z"/>
  <path class="cls-22" d="M662.74,396.36l-4.57,77.05s18.09-3.74,21.97-15.65c3.88-11.91,6.78-44.15,6.78-44.15l-24.19-17.25Z"/>
  <path class="cls-26" d="M783.58,984.25s-43.96-20.78-84.95,29.48c0,0-38.89-12.18-52.56,22.19h85.09s12.56-31.22,42.05-23.13c0,0,3.88-26.3,10.37-28.55Z"/>
  <path class="cls-26" d="M650.28,943.46s4.64-34.78-26.06-40.51l1.64,32.07s24.42.03,24.42,8.44Z"/>
  <path class="cls-26" d="M881.13,1000.66s-30.1-4.24-44.85,20.46c0,0-22.43-3.41-32.24,14.81h96.71s-10.52-29.18-19.63-35.27Z"/>
  <path class="cls-5" d="M532.74,847.48s-86.81-6.37-116.95,103.65c0,0-8.58-110,118-121.23l-1.06,17.57Z"/>
  <path class="cls-5" d="M419.23,917.83s-41.45-12.28-62.9,22.27l-8.52-5.09s22.36-49.75,75.65-28.73l-4.24,11.55Z"/>
  <path class="cls-5" d="M364.63,942.76s-44.36-5.19-63.77,21.94c-23.04,32.2,3.5,70.53,3.5,70.53,0,0-52.56-38.38-15.42-81.56,37.14-43.18,75.69-10.9,75.69-10.9Z"/>
  <path class="cls-5" d="M284.02,1012.81s-40.33,2.09-56.95,22.41l-14.52.7s.78-30.86,69.07-29.8l2.39,6.68Z"/>
  <path class="cls-5" d="M623.41,887.23s60.09-23,100.74,19.75c0,0-26.27-56.16-100.74-32.28v12.53Z"/>
  <path class="cls-5" d="M712.22,965.85s30.08-37.06,88.66,0c0,0-55.74-59.57-88.66,0Z"/>
  <path class="cls-5" d="M898.64,1031.09s-32.79-64.23-82.68-51.09c-36.74,9.68-42.75,36.31-42.75,36.31,0,0,3.5-50.46,57.47-50.46,0,0,44.13,4.35,67.97,65.25Z"/>
  <path class="cls-5" d="M657.75,951.13s-28.78-17.52-65.99,6.31c0,0,38.83-41.35,65.99-6.31Z"/>
  <path class="cls-5" d="M552.58,1016.31s-35.87-38.69-80.02-3.5l-5-3.83s42.4-52.24,85.02,7.33Z"/>
  <path class="cls-5" d="M481.93,1031.09s-22.76-39.32-58.47-.77c0,0,33.5-60.83,58.47.77Z"/>
  <ellipse class="cls-5" cx="514.28" cy="850.38" rx="26.29" ry="9.11" transform="translate(-206.41 166.1) rotate(-15.32)"/>
  <path class="cls-5" d="M411.4,914.8c.58,3.41-6.92,7.52-16.74,9.2-9.83,1.67-18.26.27-18.84-3.14s6.92-7.52,16.74-9.2c9.83-1.67,18.26-.27,18.84,3.14Z"/>
  <path class="cls-5" d="M316.6,951.97c2.66,2.21-.36,10.21-6.73,17.88-6.37,7.66-13.69,12.09-16.35,9.88-2.66-2.21.36-10.21,6.73-17.88,6.37-7.66,13.69-12.09,16.35-9.88Z"/>
  <rect class="cls-8" x="566.26" y="281.05" width="12.84" height="62.68" transform="translate(388.63 -313.45) rotate(45)"/>
  <rect class="cls-8" x="579.5" y="291.4" width="7.07" height="62.68" transform="translate(398.97 -317.74) rotate(45)"/>
  <g>
    <path class="cls-18" d="M684.89,432.88s-.43,7.28-1.56,14.34c.95-3.09,1.68-8.13,2.22-13.38-.22-.32-.43-.64-.66-.96Z"/>
    <path class="cls-18" d="M639.63,602.91h0l13.91-125.65c1.9-1.12,3.68-2.2,5.36-3.25-5.26,1.6-14.44,3.88-22.17,5.35l-5.83,136.13c-5.71,22.98-2.97,69.38-2.97,69.38,0,0,2.69.58,6.53.2-1.32-.09-2.1-.2-2.1-.2,29.43-4.84,32.24-42.11,32.24-42.11-31.89,28.03-24.95-39.86-24.95-39.86Z"/>
  </g>
  <g>
    <path class="cls-18" d="M470.23,432.88s.43,7.28,1.56,14.34c-.95-3.09-1.68-8.13-2.22-13.38.22-.32.43-.64.66-.96Z"/>
    <path class="cls-18" d="M515.49,602.91h0l-13.91-125.65c-1.9-1.12-3.68-2.2-5.36-3.25,5.26,1.6,14.44,3.88,22.17,5.35l5.83,136.13c5.71,22.98,2.97,69.38,2.97,69.38,0,0-2.69.58-6.53.2,1.32-.09,2.1-.2,2.1-.2-29.43-4.84-32.24-42.11-32.24-42.11,31.89,28.03,24.95-39.86,24.95-39.86Z"/>
  </g>
  <path class="cls-4" d="M684.89,432.88s-.78,13.09-2.97,21.17c21.98,40.41,12.85,58.67,12.85,58.67l-47.43,166.17c-.35.67-.72,1.3-1.12,1.89,3.16-2.21,6.22-5.47,8.71-10.27l55.96-157.8s12.3-24.59-25.99-79.85Z"/>
  <path class="cls-7" d="M470.85,432.88s.78,13.09,2.97,21.17c-21.98,40.41-12.85,58.67-12.85,58.67l47.43,166.17c.35.67.72,1.3,1.12,1.89-3.16-2.21-6.22-5.47-8.71-10.27l-55.96-157.8s-12.3-24.59,25.99-79.85Z"/>
  <path class="cls-18" d="M585.63,603.29l2.56-39.71c-11.74,14.13-13.7-6.71-13.71-6.74l-10.7-133.42c6.73-4.19,13.11-6.29,18.88-7.09-8.2-1.13-18.63-.06-30.1,7.09l14.51,180.94s4.44,4.39,9.73,4.93c0,0,.01,0,.02,0,.44.09.89.09,1.32.04,1.63-.05,3.3-.51,4.93-1.6-.3-.15-.58-.31-.86-.47,2.02-1.76,3.4-3.98,3.4-3.98Z"/>
  <path class="cls-7" d="M564.55,421.08c10.14,1.71,22.24,5.85,22.24,5.85l-3.75,178.7c-1.63,2.01-3.79,3.14-6.2,3.68,2.95.3,6.15-.59,9-4.11l14.97-181.77s-18.34-5.24-36.25-2.34Z"/>
  <g>
    <path class="cls-23" d="M557.99,491.32c-.45-.66-.89-1.34-1.33-2.03l-38.26-9.92,25.19,66.16,18.23,6.6s.24.01.69.04l-4.52-60.83Z"/>
    <path class="cls-23" d="M593.6,518.42l-2.32,33.2c8.5-.88,16.33-2.66,19.48-6.1,8.27-9.04,8.82-23.03,8.82-23.03,0,0-11.67.8-25.98-4.07Z"/>
  </g>
  <g class="cls-17">
    <polygon class="cls-12" points="529.62 482.28 518.4 479.36 543.59 545.52 545.21 546.11 529.62 482.28"/>
    <path class="cls-12" d="M547.69,547l14.13,5.11s.24.01.69.04l-.16-2.11-14.66-3.04Z"/>
  </g>
  <polygon class="cls-18" points="488.68 468.26 479.7 402.82 492.57 394.45 496.23 474.01 488.68 468.26"/>
  <polygon class="cls-18" points="664.56 468.26 673.53 402.82 660.67 394.45 657.01 474.01 664.56 468.26"/>
  <path class="cls-7" d="M492.57,407.53s-13.19,3.04-15,16.12c-1.82,13.08-2.09,36.96-2.09,36.96,0,0-17.36-40.93-4.45-53.08,12.9-12.15,20.58-11.17,20.58-11.17l.96,11.17Z"/>
  <path class="cls-4" d="M661.78,407.53s13.19,3.04,15,16.12c1.82,13.08,2.09,36.96,2.09,36.96,0,0,17.36-40.93,4.45-53.08-12.9-12.15-20.58-11.17-20.58-11.17l-.96,11.17Z"/>
  <path class="cls-5" d="M218.07,338.5s149.3,32.05,250.52,0c0,0-42.27-3.77-59.78-23.21-17.52-19.44-39.31-15.18-51.5,10.61,0,0,5.7-33.58-27.89-54.79-33.58-21.21-56.56,40.82-56.56,40.82,0,0,0,25.05-54.79,26.58Z"/>
  <path class="cls-5" d="M599.96,310.52s133.8,28.72,224.52,0c0,0-37.88-3.38-53.58-20.8-15.7-17.42-35.23-13.6-46.15,9.5,0,0,5.11-30.1-24.99-49.11-30.1-19.01-50.69,36.59-50.69,36.59,0,0,0,22.45-49.11,23.82Z"/>
  <path class="cls-5" d="M59.5,541.29s133.8,28.72,224.52,0c0,0-37.88-3.38-53.58-20.8-15.7-17.42-35.23-13.6-46.15,9.5,0,0,5.1-30.1-24.99-49.11-30.1-19.01-50.69,36.59-50.69,36.59,0,0,0,22.45-49.11,23.82Z"/>
  <path class="cls-5" d="M273.38,719.32s133.8,28.72,224.52,0c0,0-37.88-3.38-53.58-20.8-15.7-17.42-35.23-13.6-46.15,9.5,0,0,5.11-30.1-24.99-49.11-30.1-19.01-50.69,36.59-50.69,36.59,0,0,0,22.45-49.11,23.82Z"/>
  <path class="cls-5" d="M689.12,646.48s174.98,37.56,293.61,0c0,0-49.53-4.42-70.07-27.21-20.53-22.79-46.07-17.79-60.35,12.43,0,0,6.68-39.36-32.68-64.22-39.36-24.86-66.29,47.85-66.29,47.85,0,0,0,29.35-64.22,31.15Z"/>
  <path class="cls-13" d="M597.9,485.62c16.95-2,36.79-6.18,59.17-12.54l17.61-295.88c0-58.12-43.87-155.37-97.99-155.37s-97.99,97.25-97.99,155.37l17.61,295.88c21.72,6.17,42.65,10.48,59.17,12.54"/>
  <path class="cls-14" d="M479.71,174.16s87.36,34.88,193.96,0"/>
  <path class="cls-13" d="M576.69,609.08h0c-10.98,0-11.08-7.37-11.08-16.46l-13.21-171.45c13.26-6.4,35.32-6.4,48.57,0l-13.21,171.45c0,9.09-.1,16.46-11.08,16.46Z"/>
  <path class="cls-13" d="M490.39,396.36l-13.28,8.03c-6.76,4.09-10.36,10.87-9.42,17.76l4.15,30.5c.86,6.33,5.43,11.9,12.22,14.89l12.23,5.39"/>
  <path class="cls-13" d="M663.66,396.36l13.28,8.03c6.76,4.09,10.36,10.87,9.42,17.76l-4.15,30.5c-.86,6.33-5.43,11.9-12.22,14.89l-12.23,5.39"/>
  <path class="cls-13" d="M518.51,479.36l8.81,205.52h0c-13.17,0-24.76-7.17-28.49-17.63l-52.04-145.84c-5.7-15.97-4.94-33.04,2.16-48.62l19.54-42.9"/>
  <path class="cls-13" d="M686.75,429.9l19.54,42.9c7.1,15.58,7.85,32.65,2.16,48.62l-52.04,145.84c-3.73,10.45-15.32,17.63-28.49,17.63h0l8.81-205.52"/>
  <circle class="cls-10" cx="576.98" cy="316.56" r="49.66" transform="translate(163.79 828.8) rotate(-79.86)"/>
  <circle class="cls-10" cx="576.98" cy="316.56" r="31.43"/>
  <path class="cls-11" d="M522.69,54.23c37.34,14.74,71.15,14.74,108.49,0"/>
  <path class="cls-15" d="M561.82,552.12l-6.36-1.1c-7.62-1.07-13.82-5.61-15.92-11.67l-21.03-60.49"/>
  <path class="cls-15" d="M591.76,552.12l6.36-1.1c7.62-1.07,13.82-5.61,15.92-11.67l21.03-60.49"/>
  <path class="cls-3" d="M579.66,276.02c0,1.64-1.33,2.97-2.97,2.97s-2.97-1.33-2.97-2.97,1.33-2.97,2.97-2.97,2.97,1.33,2.97,2.97Z"/>
  <circle class="cls-21" cx="589.58" cy="205.32" r="2.97"/>
  <path class="cls-21" d="M567.08,228.28c0,1.64-1.33,2.97-2.97,2.97s-2.97-1.33-2.97-2.97,1.33-2.97,2.97-2.97,2.97,1.33,2.97,2.97Z"/>
  <circle class="cls-21" cx="564.11" cy="249.08" r="2.97"/>
  <path class="cls-21" d="M567.23,383.26c-1.64.08-3.03-1.18-3.11-2.82-.08-1.64,1.18-3.03,2.82-3.11,1.64-.08,3.03,1.18,3.11,2.82.08,1.64-1.18,3.03-2.82,3.11Z"/>
  <path class="cls-3" d="M579.66,357.06c0,1.64-1.33,2.97-2.97,2.97s-2.97-1.33-2.97-2.97,1.33-2.97,2.97-2.97,2.97,1.33,2.97,2.97Z"/>
  <path class="cls-3" d="M620.44,316.56c0,1.64-1.33,2.97-2.97,2.97s-2.97-1.33-2.97-2.97,1.33-2.97,2.97-2.97,2.97,1.33,2.97,2.97Z"/>
  <path class="cls-3" d="M539.44,316.56c0,1.64-1.33,2.97-2.97,2.97s-2.97-1.33-2.97-2.97,1.33-2.97,2.97-2.97,2.97,1.33,2.97,2.97Z"/>
  <path class="cls-3" d="M607.53,289.79c-1.16,1.16-3.04,1.16-4.2,0-1.16-1.16-1.16-3.04,0-4.2,1.16-1.16,3.04-1.16,4.2,0,1.16,1.16,1.16,3.04,0,4.2Z"/>
  <path class="cls-3" d="M550.22,347.1c-1.16,1.16-3.04,1.16-4.2,0-1.16-1.16-1.16-3.04,0-4.2,1.16-1.16,3.04-1.16,4.2,0,1.16,1.16,1.16,3.04,0,4.2Z"/>
  <circle class="cls-3" cx="605.59" cy="345.2" r="2.97"/>
  <path class="cls-3" d="M550.41,290.02c-1.16,1.16-3.04,1.16-4.2,0-1.16-1.16-1.16-3.04,0-4.2,1.16-1.16,3.04-1.16,4.2,0,1.16,1.16,1.16,3.04,0,4.2Z"/>
  <polyline class="cls-10" points="576.94 189.66 576.69 212.85 551.28 212.85 551.28 273.05"/>
  <polyline class="cls-10" points="576.69 416.38 576.69 396.87 552.4 396.87 552.4 359.58"/>
  <path class="cls-10" d="M627.88,319.54c12.53-2.21,25.55-5.34,38.91-9.61"/>
  <path class="cls-10" d="M486.6,309.93s14.26,6.02,39.71,10.21"/>
  <line class="cls-10" x1="548.12" y1="548.72" x2="525.52" y2="989.67"/>
  <line class="cls-10" x1="606.11" y1="548.72" x2="625.85" y2="934.95"/>
  <path class="cls-10" d="M533.8,829.9s-112.4-1.42-118,119.13"/>
  <path class="cls-10" d="M423.46,906.28s-46.22-24.53-75.65,28.73"/>
  <path class="cls-10" d="M365.33,942.02s-43.38-27.35-77.09,14.02c-33.18,40.71,16.82,79.89,16.82,79.89"/>
  <path class="cls-10" d="M278.52,1006.46s-51.95-5.57-65.97,29.47"/>
  <path class="cls-10" d="M552.4,1016.31s-27.48-56.79-84.85-10.17"/>
  <path class="cls-10" d="M481.93,1030.32s-21.36-58.87-58.47,0"/>
  <path class="cls-10" d="M591.76,957.44s33.22-42.05,65.99-8.41"/>
  <path class="cls-10" d="M623.41,874.7s79.71-30.25,121.76,61.29"/>
  <path class="cls-10" d="M712.22,965.85s18.94-62.9,95.04,3.88"/>
  <path class="cls-10" d="M731.16,1035.93s14.02-28.03,42.05-19.62c0,0,1.4-43.45,49.06-50.46,47.66-7.01,78.49,70.08,78.49,70.08"/>
</svg>